#N canvas 891 95 951 847 10;
#X obj 209 60 hsl 128 15 0 1 0 0 empty empty empty -2 -8 0 10 -262144
-1 -1 0 1;
#X obj 35 59 s start;
#X obj 366 59 s size;
#X obj 36 112 s density;
#X obj 363 111 s overlap;
#X obj 33 164 s blend;
#X obj 359 162 s window;
#X obj 204 139 s pitch;
#X obj 207 81 s speed;
#X obj 362 138 hsl 128 15 0 1 0 0 empty empty empty -2 -8 0 10 -262144
-1 -1 0 1;
#X obj 207 108 hsl 128 15 0 1 0 0 empty empty empty -2 -8 0 10 -262144
-1 -1 0 1;
#X obj 38 143 hsl 128 15 0 1 0 0 empty empty empty -2 -8 0 10 -262144
-1 -1 0 1;
#X obj 366 86 hsl 128 15 0 1 0 0 empty empty empty -2 -8 0 10 -262144
-1 -1 0 1;
#X obj 369 36 hsl 128 15 0 1 0 0 empty empty empty -2 -8 0 10 -262144
-1 -1 0 1;
#X obj 37 86 hsl 128 15 0 1 0 0 empty empty empty -2 -8 0 10 -262144
-1 -1 0 1;
#X obj 40 37 hsl 128 15 0 1 0 0 empty empty empty -2 -8 0 10 -262144
-1 -1 0 1;
#N canvas 73 53 528 380 audio-input 0;
#X obj 190 120 adc~;
#X obj 157 221 send~ phase-in;
#X obj 274 157 expr~ $v1 > 0.1;
#X obj 290 211 send~ sync-in;
#X connect 0 0 1 0;
#X connect 0 1 2 0;
#X connect 2 0 3 0;
#X restore 46 316 pd audio-input;
#N canvas 0 50 630 442 audio-output 0;
#X obj 236 345 dac~;
#X msg 407 321 \; pd dsp 1;
#X obj 407 269 loadbang;
#X obj 407 294 delay 100;
#X obj 52 56 catch~ lbus;
#X obj 392 70 catch~ rbus;
#X connect 2 0 3 0;
#X connect 3 0 1 0;
#X connect 4 0 0 0;
#X connect 5 0 0 1;
#X restore 42 357 pd audio-output;
#N canvas 0 50 1449 445 receive-UI-controls 0;
#X obj 54 33 netreceive 3000;
#X obj 138 88 route start size density overlap blend window pitch speed
record file source reset freeze;
#X obj 139 370 s start;
#X obj 171 330 s size;
#X obj 200 285 s density;
#X obj 229 248 s overlap;
#X obj 259 216 s blend;
#X obj 290 182 s window;
#X obj 320 161 s pitch;
#X obj 351 134 s speed;
#X obj 386 271 s record;
#X obj 412 249 s file;
#X obj 445 230 s source;
#X obj 472 192 s reset;
#X obj 503 155 s freeze;
#X obj 547 269 s start_alt;
#X obj 565 244 s size_alt;
#X obj 580 221 s density_alt;
#X obj 598 196 s overlap_alt;
#X obj 681 275 s blend_alt;
#X obj 707 250 s window_alt;
#X obj 724 229 s pitch_alt;
#X obj 911 276 s freeze_alt;
#X obj 788 276 s record_alt;
#X obj 806 251 s file_alt;
#X obj 824 229 s source_alt;
#X obj 1104 138 loadbang;
#X obj 1104 160 delay 300;
#X obj 1104 182 s initbang;
#X obj 1294 148 r initbang;
#X msg 1294 170 \; pd dsp 1;
#X obj 557 76 route start_alt size_alt density_alt overlap_alt blend_alt
window_alt pitch_alt record_alt file_alt source_alt freeze_alt speed_alt
;
#X obj 949 226 s speed_alt;
#N canvas 341 77 850 582 myscale 0;
#X obj 139 39 inlet;
#X obj 213 180 min;
#X obj 256 187 max;
#X obj 142 88 t b f f f f b;
#X obj 187 369 /;
#X obj 232 125 f 0;
#X obj 274 146 f 1;
#X obj 213 328 sel 0;
#X obj 157 251 -;
#X floatatom 207 44 5 0 0 0 - - -, f 5;
#X obj 214 288 -;
#X obj 212 403 outlet;
#X connect 0 0 3 0;
#X connect 1 0 5 1;
#X connect 1 0 8 1;
#X connect 1 0 10 1;
#X connect 2 0 6 1;
#X connect 2 0 10 0;
#X connect 3 2 8 0;
#X connect 3 3 2 0;
#X connect 3 4 1 0;
#X connect 3 5 5 0;
#X connect 3 5 6 0;
#X connect 4 0 11 0;
#X connect 5 0 1 1;
#X connect 6 0 2 1;
#X connect 7 1 4 1;
#X connect 8 0 4 0;
#X connect 9 0 3 0;
#X connect 10 0 7 0;
#X restore 935 168 pd myscale;
#X connect 0 0 1 0;
#X connect 1 0 2 0;
#X connect 1 1 3 0;
#X connect 1 2 4 0;
#X connect 1 3 5 0;
#X connect 1 4 6 0;
#X connect 1 5 7 0;
#X connect 1 6 8 0;
#X connect 1 7 9 0;
#X connect 1 8 10 0;
#X connect 1 9 11 0;
#X connect 1 10 12 0;
#X connect 1 11 13 0;
#X connect 1 12 14 0;
#X connect 1 13 31 0;
#X connect 26 0 27 0;
#X connect 27 0 28 0;
#X connect 29 0 30 0;
#X connect 31 0 15 0;
#X connect 31 1 16 0;
#X connect 31 2 17 0;
#X connect 31 3 18 0;
#X connect 31 4 19 0;
#X connect 31 5 20 0;
#X connect 31 6 21 0;
#X connect 31 7 23 0;
#X connect 31 8 24 0;
#X connect 31 9 25 0;
#X connect 31 10 22 0;
#X connect 31 11 33 0;
#X connect 33 0 32 0;
#X restore 40 391 pd receive-UI-controls;
#N canvas 0 50 1916 1004 synthesis 0;
#X obj 843 1011 throw~ rbus;
#X floatatom 1095 175 5 0 0 0 - - -, f 5;
#X obj 730 55 r pitch;
#X obj 1106 48 r density;
#X obj 821 822 cos~;
#X obj 1364 15 r blend;
#X obj 768 297 mtof~;
#X obj 951 755 cos~;
#X obj 917 338 *~;
#X obj 933 367 /~;
#X obj 950 337 *~;
#X obj 965 366 /~;
#X obj 993 335 *~;
#X obj 1006 367 /~;
#X floatatom 1025 245 5 0 0 0 - - -, f 5;
#X floatatom 1088 269 5 0 0 0 - - -, f 5;
#X obj 992 722 *~;
#X obj 1037 183 int;
#X obj 1095 203 int;
#X obj 971 690 cos~;
#X obj 1025 603 cos~;
#X obj 1026 644 *~;
#X obj 1058 19 r start;
#X floatatom 1042 157 5 0 0 0 - - -, f 5;
#X obj 1052 95 * 32;
#X obj 1101 119 * 32;
#X obj 1034 336 *~;
#X obj 1037 366 /~;
#X obj 1043 526 cos~;
#X obj 1059 570 *~;
#X obj 1100 148 + 1;
#X obj 1044 123 + 1;
#X obj 725 95 * 60;
#X obj 1505 24 r speed;
#X obj 1261 596 *~;
#X obj 1233 565 *~;
#X obj 1201 540 *~;
#X obj 1183 504 *~;
#X obj 1464 277 clip~ 1 2;
#X obj 1545 335 clip~ 3 4;
#X obj 1500 306 clip~ 2 3;
#X obj 1452 305 -~ 1;
#X obj 1498 336 -~ 2;
#X obj 1564 369 -~ 3;
#X obj 1210 466 -~, f 4;
#X obj 1456 356 -~;
#X obj 1484 391 -~;
#X obj 1362 255 clip~ 0 1;
#X obj 1332 222 clip~ 1 2;
#X obj 1273 198 clip~ 2 3;
#X obj 1320 250 -~ 1;
#X obj 1271 229 -~ 2;
#X obj 1346 152 *~ 3;
#X floatatom 268 186 5 0 0 0 - - -, f 5;
#X obj 117 819 cos~;
#X obj 39 375 *~;
#X obj 41 401 /~;
#X obj 113 375 *~;
#X obj 115 401 /~;
#X obj 178 375 *~;
#X obj 181 406 /~;
#X floatatom 192 280 5 0 0 0 - - -, f 5;
#X floatatom 255 304 5 0 0 0 - - -, f 5;
#X obj 176 782 *~;
#X obj 206 231 int;
#X obj 262 233 int;
#X obj 157 753 cos~;
#X obj 193 681 cos~;
#X obj 193 717 *~;
#X floatatom 211 185 5 0 0 0 - - -, f 5;
#X obj 221 123 * 32;
#X obj 274 130 * 32;
#X obj 232 377 *~;
#X obj 235 408 /~;
#X obj 235 603 cos~;
#X obj 230 630 *~;
#X obj 273 159 + 1;
#X obj 213 151 + 1;
#X obj 608 107 r speed;
#X obj 639 674 *~;
#X obj 602 633 *~;
#X obj 569 610 *~;
#X obj 518 579 *~;
#X obj 588 451 clip~ 0 1;
#X obj 598 485 clip~ 1 2;
#X obj 679 543 clip~ 3 4;
#X obj 634 514 clip~ 2 3;
#X obj 586 513 -~ 1;
#X obj 632 544 -~ 2;
#X obj 685 571 -~ 3;
#X obj 519 553 -~, f 4;
#X obj 590 564 -~;
#X obj 628 603 -~;
#X obj 477 460 clip~ 0 1;
#X obj 447 427 clip~ 1 2;
#X obj 388 403 clip~ 2 3;
#X obj 435 455 -~ 1;
#X obj 386 434 -~ 2;
#X obj 463 376 *~ 3;
#X obj 227 6 r size;
#X obj 279 13 r overlap;
#X obj 464 146 r window;
#X obj 1454 243 clip~ 0 1;
#X obj 613 341 *~ 8;
#X obj 620 381 -~ 4;
#X obj 1474 148 *~ -8;
#X obj 1464 193 +~ 4;
#X obj 631 273 line~;
#X obj 1491 105 line~;
#X msg 1491 69 \$1 20;
#X msg 631 237 \$1 20;
#X obj 445 295 line~;
#X msg 445 259 \$1 20;
#X obj 1347 118 line~;
#X msg 1347 82 \$1 20;
#X obj 784 650 receive~ phase-in;
#N canvas 0 50 384 356 sync-phasor 0;
#X obj 35 70 phasor~;
#X obj 59 114 samphold~;
#X obj 38 152 -~;
#X obj 79 177 expr~ $v1 < 0;
#X obj 24 223 +~;
#X obj 126 41 receive~ sync-in;
#X obj 31 20 inlet~;
#X obj 27 266 outlet~;
#X connect 0 0 1 0;
#X connect 0 0 2 0;
#X connect 1 0 2 1;
#X connect 2 0 3 0;
#X connect 2 0 4 0;
#X connect 3 0 4 1;
#X connect 4 0 7 0;
#X connect 5 0 1 1;
#X connect 6 0 0 0;
#X restore 765 628 pd sync-phasor;
#N canvas 0 50 384 356 sync-phasor 0;
#X obj 35 70 phasor~;
#X obj 59 114 samphold~;
#X obj 38 152 -~;
#X obj 79 177 expr~ $v1 < 0;
#X obj 24 223 +~;
#X obj 126 41 receive~ sync-in;
#X obj 31 20 inlet~;
#X obj 27 266 outlet~;
#X connect 0 0 1 0;
#X connect 0 0 2 0;
#X connect 1 0 2 1;
#X connect 2 0 3 0;
#X connect 2 0 4 0;
#X connect 3 0 4 1;
#X connect 4 0 7 0;
#X connect 5 0 1 1;
#X connect 6 0 0 0;
#X restore 1010 445 pd sync-phasor;
#N canvas 0 50 384 356 sync-phasor 0;
#X obj 35 70 phasor~;
#X obj 59 114 samphold~;
#X obj 38 152 -~;
#X obj 79 177 expr~ $v1 < 0;
#X obj 24 223 +~;
#X obj 126 41 receive~ sync-in;
#X obj 31 20 inlet~;
#X obj 27 266 outlet~;
#X connect 0 0 1 0;
#X connect 0 0 2 0;
#X connect 1 0 2 1;
#X connect 2 0 3 0;
#X connect 2 0 4 0;
#X connect 3 0 4 1;
#X connect 4 0 7 0;
#X connect 5 0 1 1;
#X connect 6 0 0 0;
#X restore 1066 419 pd sync-phasor;
#N canvas 0 50 384 356 sync-phasor 0;
#X obj 35 70 phasor~;
#X obj 59 114 samphold~;
#X obj 38 152 -~;
#X obj 79 177 expr~ $v1 < 0;
#X obj 24 223 +~;
#X obj 126 41 receive~ sync-in;
#X obj 31 20 inlet~;
#X obj 27 266 outlet~;
#X connect 0 0 1 0;
#X connect 0 0 2 0;
#X connect 1 0 2 1;
#X connect 2 0 3 0;
#X connect 2 0 4 0;
#X connect 3 0 4 1;
#X connect 4 0 7 0;
#X connect 5 0 1 1;
#X connect 6 0 0 0;
#X restore 939 409 pd sync-phasor;
#N canvas 0 50 384 356 sync-phasor 0;
#X obj 35 70 phasor~;
#X obj 59 114 samphold~;
#X obj 38 152 -~;
#X obj 79 177 expr~ $v1 < 0;
#X obj 24 223 +~;
#X obj 126 41 receive~ sync-in;
#X obj 31 20 inlet~;
#X obj 27 266 outlet~;
#X connect 0 0 1 0;
#X connect 0 0 2 0;
#X connect 1 0 2 1;
#X connect 2 0 3 0;
#X connect 2 0 4 0;
#X connect 3 0 4 1;
#X connect 4 0 7 0;
#X connect 5 0 1 1;
#X connect 6 0 0 0;
#X restore 861 442 pd sync-phasor;
#N canvas 0 50 384 356 sync-phasor 0;
#X obj 35 70 phasor~;
#X obj 59 114 samphold~;
#X obj 38 152 -~;
#X obj 79 177 expr~ $v1 < 0;
#X obj 24 223 +~;
#X obj 126 41 receive~ sync-in;
#X obj 31 20 inlet~;
#X obj 27 266 outlet~;
#X connect 0 0 1 0;
#X connect 0 0 2 0;
#X connect 1 0 2 1;
#X connect 2 0 3 0;
#X connect 2 0 4 0;
#X connect 3 0 4 1;
#X connect 4 0 7 0;
#X connect 5 0 1 1;
#X connect 6 0 0 0;
#X restore 166 478 pd sync-phasor;
#N canvas 0 50 384 356 sync-phasor 0;
#X obj 35 70 phasor~;
#X obj 59 114 samphold~;
#X obj 38 152 -~;
#X obj 79 177 expr~ $v1 < 0;
#X obj 24 223 +~;
#X obj 126 41 receive~ sync-in;
#X obj 31 20 inlet~;
#X obj 27 266 outlet~;
#X connect 0 0 1 0;
#X connect 0 0 2 0;
#X connect 1 0 2 1;
#X connect 2 0 3 0;
#X connect 2 0 4 0;
#X connect 3 0 4 1;
#X connect 4 0 7 0;
#X connect 5 0 1 1;
#X connect 6 0 0 0;
#X restore 222 452 pd sync-phasor;
#N canvas 0 50 384 356 sync-phasor 0;
#X obj 35 70 phasor~;
#X obj 59 114 samphold~;
#X obj 38 152 -~;
#X obj 79 177 expr~ $v1 < 0;
#X obj 24 223 +~;
#X obj 126 41 receive~ sync-in;
#X obj 31 20 inlet~;
#X obj 27 266 outlet~;
#X connect 0 0 1 0;
#X connect 0 0 2 0;
#X connect 1 0 2 1;
#X connect 2 0 3 0;
#X connect 2 0 4 0;
#X connect 3 0 4 1;
#X connect 4 0 7 0;
#X connect 5 0 1 1;
#X connect 6 0 0 0;
#X restore 95 442 pd sync-phasor;
#N canvas 0 50 384 356 sync-phasor 0;
#X obj 35 70 phasor~;
#X obj 59 114 samphold~;
#X obj 38 152 -~;
#X obj 79 177 expr~ $v1 < 0;
#X obj 24 223 +~;
#X obj 126 41 receive~ sync-in;
#X obj 31 20 inlet~;
#X obj 27 266 outlet~;
#X connect 0 0 1 0;
#X connect 0 0 2 0;
#X connect 1 0 2 1;
#X connect 2 0 3 0;
#X connect 2 0 4 0;
#X connect 3 0 4 1;
#X connect 4 0 7 0;
#X connect 5 0 1 1;
#X connect 6 0 0 0;
#X restore 17 474 pd sync-phasor;
#X obj 1045 1000 throw~ lbus;
#X obj 341 187 r record;
#X obj 202 256 * 1;
#X obj 259 272 * 1;
#X obj 332 237 + 1;
#X obj 342 208 t b f;
#X obj 1213 94 r record;
#X obj 1200 150 t b f;
#X obj 1030 218 * 1;
#X obj 1087 234 * 1;
#X obj 1206 214 + 1;
#X obj 1020 275 sig~;
#X obj 981 266 sig~;
#X obj 672 805 *~ 1;
#X obj 1145 806 *~ 1;
#X obj 874 894 r source;
#X obj 862 975 *~ 0;
#X obj 819 973 *~ 1;
#X obj 840 953 == 0, f 5;
#X obj 737 171 f;
#X obj 791 19 r pitch_alt;
#X obj 791 81 - 0.5;
#X obj 790 109 * 127;
#X obj 787 141 t b f;
#X obj 747 207 +;
#X obj 860 822 expr~ tan ( 6.28 * $v1 );
#N canvas 0 50 844 613 scrambler 0;
#X obj 87 281 inlet~;
#X obj 84 308 inlet~;
#X obj 86 345 inlet~;
#X obj 84 373 inlet~;
#X obj 147 490 outlet~;
#X obj 212 491 outlet~;
#X obj 288 493 outlet~;
#X obj 353 494 outlet~;
#X obj 197 301 *~;
#X obj 231 305 *~;
#X obj 265 302 *~;
#X obj 299 303 *~;
#X obj 197 333 *~;
#X obj 231 334 *~;
#X obj 265 334 *~;
#X obj 299 335 *~;
#X obj 197 364 *~;
#X obj 232 370 *~;
#X obj 265 365 *~;
#X obj 299 366 *~;
#X obj 196 394 *~;
#X obj 230 395 *~;
#X obj 264 395 *~;
#X obj 298 396 *~;
#X obj 461 309 == 0;
#X obj 506 311 == 1;
#X obj 548 310 == 2;
#X obj 588 311 == 3;
#X obj 460 335 tgl 15 0 empty empty empty 17 7 0 10 -262144 -1 -1 1
1;
#X obj 507 339 tgl 15 0 empty empty empty 17 7 0 10 -262144 -1 -1 0
1;
#X obj 545 339 tgl 15 0 empty empty empty 17 7 0 10 -262144 -1 -1 0
1;
#X obj 588 339 tgl 15 0 empty empty empty 17 7 0 10 -262144 -1 -1 0
1;
#X obj 507 360 == 0;
#X obj 552 362 == 1;
#X obj 594 361 == 2;
#X obj 458 360 == 3;
#X obj 506 386 tgl 15 0 empty empty empty 17 7 0 10 -262144 -1 -1 1
1;
#X obj 553 390 tgl 15 0 empty empty empty 17 7 0 10 -262144 -1 -1 0
1;
#X obj 591 390 tgl 15 0 empty empty empty 17 7 0 10 -262144 -1 -1 0
1;
#X obj 458 388 tgl 15 0 empty empty empty 17 7 0 10 -262144 -1 -1 0
1;
#X obj 539 414 == 0;
#X obj 584 416 == 1;
#X obj 458 411 == 2;
#X obj 498 412 == 3;
#X obj 538 440 tgl 15 0 empty empty empty 17 7 0 10 -262144 -1 -1 1
1;
#X obj 585 444 tgl 15 0 empty empty empty 17 7 0 10 -262144 -1 -1 0
1;
#X obj 455 440 tgl 15 0 empty empty empty 17 7 0 10 -262144 -1 -1 0
1;
#X obj 498 440 tgl 15 0 empty empty empty 17 7 0 10 -262144 -1 -1 0
1;
#X obj 583 462 == 0;
#X obj 454 465 == 1;
#X obj 496 464 == 2;
#X obj 536 465 == 3;
#X obj 582 488 tgl 15 0 empty empty empty 17 7 0 10 -262144 -1 -1 1
1;
#X obj 455 493 tgl 15 0 empty empty empty 17 7 0 10 -262144 -1 -1 0
1;
#X obj 493 493 tgl 15 0 empty empty empty 17 7 0 10 -262144 -1 -1 0
1;
#X obj 536 493 tgl 15 0 empty empty empty 17 7 0 10 -262144 -1 -1 0
1;
#X floatatom 528 250 5 0 0 0 - - -, f 5;
#X obj 550 217 f 0;
#X obj 600 193 + 1;
#X obj 547 178 bng 15 250 50 0 empty empty empty 17 7 0 10 -262144
-1 -1;
#X obj 601 225 % 4;
#X obj 446 38 r reset;
#X obj 472 79 change;
#X obj 496 113 sel 1;
#X obj 598 20 r initbang;
#X connect 0 0 8 0;
#X connect 0 0 9 0;
#X connect 0 0 10 0;
#X connect 0 0 11 0;
#X connect 1 0 12 0;
#X connect 1 0 13 0;
#X connect 1 0 14 0;
#X connect 1 0 15 0;
#X connect 2 0 16 0;
#X connect 2 0 17 0;
#X connect 2 0 18 0;
#X connect 2 0 19 0;
#X connect 3 0 20 0;
#X connect 3 0 21 0;
#X connect 3 0 22 0;
#X connect 3 0 23 0;
#X connect 8 0 4 0;
#X connect 9 0 5 0;
#X connect 10 0 6 0;
#X connect 11 0 7 0;
#X connect 12 0 4 0;
#X connect 13 0 5 0;
#X connect 14 0 6 0;
#X connect 15 0 7 0;
#X connect 16 0 4 0;
#X connect 17 0 5 0;
#X connect 18 0 6 0;
#X connect 19 0 7 0;
#X connect 20 0 4 0;
#X connect 21 0 5 0;
#X connect 22 0 6 0;
#X connect 23 0 7 0;
#X connect 24 0 28 0;
#X connect 25 0 29 0;
#X connect 26 0 30 0;
#X connect 27 0 31 0;
#X connect 28 0 8 1;
#X connect 29 0 9 1;
#X connect 30 0 10 1;
#X connect 31 0 11 1;
#X connect 32 0 36 0;
#X connect 33 0 37 0;
#X connect 34 0 38 0;
#X connect 35 0 39 0;
#X connect 36 0 13 1;
#X connect 37 0 14 1;
#X connect 38 0 15 1;
#X connect 39 0 12 1;
#X connect 40 0 44 0;
#X connect 41 0 45 0;
#X connect 42 0 46 0;
#X connect 43 0 47 0;
#X connect 44 0 18 1;
#X connect 45 0 19 1;
#X connect 46 0 16 1;
#X connect 47 0 17 1;
#X connect 48 0 52 0;
#X connect 49 0 53 0;
#X connect 50 0 54 0;
#X connect 51 0 55 0;
#X connect 52 0 23 1;
#X connect 53 0 20 1;
#X connect 54 0 21 1;
#X connect 55 0 22 1;
#X connect 56 0 24 0;
#X connect 56 0 25 0;
#X connect 56 0 26 0;
#X connect 56 0 27 0;
#X connect 56 0 35 0;
#X connect 56 0 32 0;
#X connect 56 0 33 0;
#X connect 56 0 34 0;
#X connect 56 0 42 0;
#X connect 56 0 43 0;
#X connect 56 0 40 0;
#X connect 56 0 41 0;
#X connect 56 0 49 0;
#X connect 56 0 50 0;
#X connect 56 0 51 0;
#X connect 56 0 48 0;
#X connect 57 0 58 0;
#X connect 57 0 56 0;
#X connect 58 0 60 0;
#X connect 59 0 57 0;
#X connect 60 0 57 1;
#X connect 61 0 62 0;
#X connect 62 0 63 0;
#X connect 63 0 59 0;
#X connect 64 0 59 0;
#X restore 131 537 pd scrambler;
#N canvas 856 50 844 613 scrambler 0;
#X obj 87 281 inlet~;
#X obj 84 308 inlet~;
#X obj 86 345 inlet~;
#X obj 84 373 inlet~;
#X obj 147 490 outlet~;
#X obj 212 491 outlet~;
#X obj 288 493 outlet~;
#X obj 353 494 outlet~;
#X obj 197 301 *~;
#X obj 231 305 *~;
#X obj 265 302 *~;
#X obj 299 303 *~;
#X obj 197 333 *~;
#X obj 231 334 *~;
#X obj 265 334 *~;
#X obj 299 335 *~;
#X obj 197 364 *~;
#X obj 232 370 *~;
#X obj 265 365 *~;
#X obj 299 366 *~;
#X obj 196 394 *~;
#X obj 230 395 *~;
#X obj 264 395 *~;
#X obj 298 396 *~;
#X obj 461 309 == 0;
#X obj 506 311 == 1;
#X obj 548 310 == 2;
#X obj 588 311 == 3;
#X obj 460 335 tgl 15 0 empty empty empty 17 7 0 10 -262144 -1 -1 1
1;
#X obj 507 339 tgl 15 0 empty empty empty 17 7 0 10 -262144 -1 -1 0
1;
#X obj 545 339 tgl 15 0 empty empty empty 17 7 0 10 -262144 -1 -1 0
1;
#X obj 588 339 tgl 15 0 empty empty empty 17 7 0 10 -262144 -1 -1 0
1;
#X obj 507 360 == 0;
#X obj 552 362 == 1;
#X obj 594 361 == 2;
#X obj 458 360 == 3;
#X obj 506 386 tgl 15 0 empty empty empty 17 7 0 10 -262144 -1 -1 1
1;
#X obj 553 390 tgl 15 0 empty empty empty 17 7 0 10 -262144 -1 -1 0
1;
#X obj 591 390 tgl 15 0 empty empty empty 17 7 0 10 -262144 -1 -1 0
1;
#X obj 458 388 tgl 15 0 empty empty empty 17 7 0 10 -262144 -1 -1 0
1;
#X obj 539 414 == 0;
#X obj 584 416 == 1;
#X obj 458 411 == 2;
#X obj 498 412 == 3;
#X obj 538 440 tgl 15 0 empty empty empty 17 7 0 10 -262144 -1 -1 1
1;
#X obj 585 444 tgl 15 0 empty empty empty 17 7 0 10 -262144 -1 -1 0
1;
#X obj 455 440 tgl 15 0 empty empty empty 17 7 0 10 -262144 -1 -1 0
1;
#X obj 498 440 tgl 15 0 empty empty empty 17 7 0 10 -262144 -1 -1 0
1;
#X obj 583 462 == 0;
#X obj 454 465 == 1;
#X obj 496 464 == 2;
#X obj 536 465 == 3;
#X obj 582 488 tgl 15 0 empty empty empty 17 7 0 10 -262144 -1 -1 1
1;
#X obj 455 493 tgl 15 0 empty empty empty 17 7 0 10 -262144 -1 -1 0
1;
#X obj 493 493 tgl 15 0 empty empty empty 17 7 0 10 -262144 -1 -1 0
1;
#X obj 536 493 tgl 15 0 empty empty empty 17 7 0 10 -262144 -1 -1 0
1;
#X floatatom 528 250 5 0 0 0 - - -, f 5;
#X obj 593 175 f 0;
#X obj 643 151 + 1;
#X obj 590 136 bng 15 250 50 0 empty empty empty 17 7 0 10 -262144
-1 -1;
#X obj 644 183 % 4;
#X obj 532 44 r file;
#X obj 598 21 r initbang;
#X obj 531 91 change;
#X connect 0 0 8 0;
#X connect 0 0 9 0;
#X connect 0 0 10 0;
#X connect 0 0 11 0;
#X connect 1 0 12 0;
#X connect 1 0 13 0;
#X connect 1 0 14 0;
#X connect 1 0 15 0;
#X connect 2 0 16 0;
#X connect 2 0 17 0;
#X connect 2 0 18 0;
#X connect 2 0 19 0;
#X connect 3 0 20 0;
#X connect 3 0 21 0;
#X connect 3 0 22 0;
#X connect 3 0 23 0;
#X connect 8 0 4 0;
#X connect 9 0 5 0;
#X connect 10 0 6 0;
#X connect 11 0 7 0;
#X connect 12 0 4 0;
#X connect 13 0 5 0;
#X connect 14 0 6 0;
#X connect 15 0 7 0;
#X connect 16 0 4 0;
#X connect 17 0 5 0;
#X connect 18 0 6 0;
#X connect 19 0 7 0;
#X connect 20 0 4 0;
#X connect 21 0 5 0;
#X connect 22 0 6 0;
#X connect 23 0 7 0;
#X connect 24 0 28 0;
#X connect 25 0 29 0;
#X connect 26 0 30 0;
#X connect 27 0 31 0;
#X connect 28 0 8 1;
#X connect 29 0 9 1;
#X connect 30 0 10 1;
#X connect 31 0 11 1;
#X connect 32 0 36 0;
#X connect 33 0 37 0;
#X connect 34 0 38 0;
#X connect 35 0 39 0;
#X connect 36 0 13 1;
#X connect 37 0 14 1;
#X connect 38 0 15 1;
#X connect 39 0 12 1;
#X connect 40 0 44 0;
#X connect 41 0 45 0;
#X connect 42 0 46 0;
#X connect 43 0 47 0;
#X connect 44 0 18 1;
#X connect 45 0 19 1;
#X connect 46 0 16 1;
#X connect 47 0 17 1;
#X connect 48 0 52 0;
#X connect 49 0 53 0;
#X connect 50 0 54 0;
#X connect 51 0 55 0;
#X connect 52 0 23 1;
#X connect 53 0 20 1;
#X connect 54 0 21 1;
#X connect 55 0 22 1;
#X connect 56 0 24 0;
#X connect 56 0 25 0;
#X connect 56 0 26 0;
#X connect 56 0 27 0;
#X connect 56 0 35 0;
#X connect 56 0 32 0;
#X connect 56 0 33 0;
#X connect 56 0 34 0;
#X connect 56 0 42 0;
#X connect 56 0 43 0;
#X connect 56 0 40 0;
#X connect 56 0 41 0;
#X connect 56 0 49 0;
#X connect 56 0 50 0;
#X connect 56 0 51 0;
#X connect 56 0 48 0;
#X connect 57 0 58 0;
#X connect 57 0 56 0;
#X connect 58 0 60 0;
#X connect 59 0 57 0;
#X connect 60 0 57 1;
#X connect 61 0 63 0;
#X connect 62 0 59 0;
#X connect 63 0 59 0;
#X restore 928 492 pd scrambler;
#X obj 1117 866 r source;
#X obj 1167 963 *~ 0;
#X obj 1021 970 *~ 1;
#X obj 1052 949 == 0;
#X obj 1220 931 expr~ tan ( 6.28 * $v1 );
#X obj 1019 931 cos~;
#X obj 393 71 sel 1 0;
#X msg 417 105 8;
#X msg 313 96 32;
#X obj 936 56 sel 1 0;
#X msg 956 123 8;
#X msg 916 88 32;
#X obj 1057 59 f;
#X obj 1098 88 f;
#X obj 950 25 t b f;
#X obj 230 62 f;
#X obj 271 91 f;
#X obj 349 42 t b f;
#X obj 357 6 r freeze;
#X obj 947 3 r record;
#N canvas 178 63 450 300 xfade 0;
#X obj 95 35 inlet~;
#X obj 28 34 inlet~;
#X obj 237 38 inlet;
#X obj 235 86 t b f;
#X obj 226 137 -;
#X obj 40 165 *~ 1;
#X obj 193 174 *~ 0;
#X msg 225 111 1;
#X obj 103 231 outlet~;
#X connect 0 0 6 0;
#X connect 1 0 5 0;
#X connect 2 0 3 0;
#X connect 2 0 5 1;
#X connect 3 0 7 0;
#X connect 3 1 4 1;
#X connect 4 0 6 1;
#X connect 5 0 8 0;
#X connect 6 0 8 0;
#X connect 7 0 4 0;
#X restore 199 878 pd xfade;
#N canvas 178 63 450 300 xfade 0;
#X obj 95 35 inlet~;
#X obj 28 34 inlet~;
#X obj 237 38 inlet;
#X obj 235 86 t b f;
#X obj 226 137 -;
#X obj 40 165 *~ 1;
#X obj 193 174 *~ 0;
#X msg 225 111 1;
#X obj 103 231 outlet~;
#X connect 0 0 6 0;
#X connect 1 0 5 0;
#X connect 2 0 3 0;
#X connect 2 0 5 1;
#X connect 3 0 7 0;
#X connect 3 1 4 1;
#X connect 4 0 6 1;
#X connect 5 0 8 0;
#X connect 6 0 8 0;
#X connect 7 0 4 0;
#X restore 280 881 pd xfade;
#X obj 1521 679 r start_alt;
#X obj 1547 707 r density_alt;
#X obj 390 782 r size_alt;
#X obj 416 809 r overlap_alt;
#X obj 404 842 r window_alt;
#X obj 290 913 *~ 0;
#N canvas 178 63 450 300 xfade 0;
#X obj 95 35 inlet~;
#X obj 28 34 inlet~;
#X obj 237 38 inlet;
#X obj 235 86 t b f;
#X obj 226 137 -;
#X obj 40 165 *~ 1;
#X obj 193 174 *~ 0;
#X msg 225 111 1;
#X obj 103 231 outlet~;
#X connect 0 0 6 0;
#X connect 1 0 5 0;
#X connect 2 0 3 0;
#X connect 2 0 5 1;
#X connect 3 0 7 0;
#X connect 3 1 4 1;
#X connect 4 0 6 1;
#X connect 5 0 8 0;
#X connect 6 0 8 0;
#X connect 7 0 4 0;
#X restore 1377 774 pd xfade;
#N canvas 178 63 450 300 xfade 0;
#X obj 95 35 inlet~;
#X obj 28 34 inlet~;
#X obj 237 38 inlet;
#X obj 235 86 t b f;
#X obj 226 137 -;
#X obj 40 165 *~ 1;
#X obj 193 174 *~ 0;
#X msg 225 111 1;
#X obj 103 231 outlet~;
#X connect 0 0 6 0;
#X connect 1 0 5 0;
#X connect 2 0 3 0;
#X connect 2 0 5 1;
#X connect 3 0 7 0;
#X connect 3 1 4 1;
#X connect 4 0 6 1;
#X connect 5 0 8 0;
#X connect 6 0 8 0;
#X connect 7 0 4 0;
#X restore 1458 774 pd xfade;
#X obj 1452 914 *~ 0;
#X obj 1509 794 r blend_alt;
#X obj 207 917 *~;
#X obj 1416 811 *~;
#N canvas 1247 334 588 368 split-param 0;
#X obj 140 40 inlet;
#X obj 50 315 outlet;
#X obj 231 316 outlet;
#X obj 101 224 -;
#X obj 112 157 t b f;
#X msg 102 193 1;
#X obj 225 132 - 1;
#X msg 150 133 0;
#X obj 96 261 * 20;
#X msg 184 137 1;
#X obj 171 239 *;
#X obj 168 209 t f f;
#X obj 164 261 * 4;
#X obj 101 224 -;
#X obj 112 157 t b f;
#X msg 102 193 1;
#X obj 139 71 * 2;
#X obj 225 132 - 1;
#X msg 150 133 0;
#X obj 96 261 * 20;
#X msg 184 137 1;
#X obj 171 239 *;
#X obj 168 209 t f f;
#X obj 164 261 * 4;
#X text 210 47 lets us control two parameters with one input;
#X text 266 108 parameter is split down middle;
#X obj 140 103 moses 1;
#X obj 140 103 moses 1;
#X connect 0 0 16 0;
#X connect 3 0 8 0;
#X connect 4 0 5 0;
#X connect 4 1 3 1;
#X connect 5 0 3 0;
#X connect 6 0 11 0;
#X connect 7 0 11 0;
#X connect 8 0 1 0;
#X connect 9 0 4 0;
#X connect 10 0 12 0;
#X connect 11 0 10 0;
#X connect 11 1 10 1;
#X connect 12 0 2 0;
#X connect 13 0 19 0;
#X connect 14 0 15 0;
#X connect 14 1 13 1;
#X connect 15 0 13 0;
#X connect 16 0 26 0;
#X connect 20 0 14 0;
#X connect 21 0 23 0;
#X connect 22 0 21 0;
#X connect 22 1 21 1;
#X connect 26 0 4 0;
#X connect 26 0 7 0;
#X connect 26 1 9 0;
#X connect 26 1 6 0;
#X restore 386 881 pd split-param;
#X obj 342 982 *~ 0;
#N canvas 1247 334 588 368 split-param 0;
#X obj 140 40 inlet;
#X obj 50 315 outlet;
#X obj 231 316 outlet;
#X obj 101 224 -;
#X obj 112 157 t b f;
#X msg 102 193 1;
#X obj 225 132 - 1;
#X msg 150 133 0;
#X obj 96 261 * 20;
#X msg 184 137 1;
#X obj 171 239 *;
#X obj 168 209 t f f;
#X obj 164 261 * 4;
#X obj 101 224 -;
#X obj 112 157 t b f;
#X msg 102 193 1;
#X obj 139 71 * 2;
#X obj 225 132 - 1;
#X msg 150 133 0;
#X obj 96 261 * 20;
#X msg 184 137 1;
#X obj 171 239 *;
#X obj 168 209 t f f;
#X obj 164 261 * 4;
#X text 210 47 lets us control two parameters with one input;
#X text 266 108 parameter is split down middle;
#X obj 140 103 moses 1;
#X obj 140 103 moses 1;
#X connect 0 0 16 0;
#X connect 3 0 8 0;
#X connect 4 0 5 0;
#X connect 4 1 3 1;
#X connect 5 0 3 0;
#X connect 6 0 11 0;
#X connect 7 0 11 0;
#X connect 8 0 1 0;
#X connect 9 0 4 0;
#X connect 10 0 12 0;
#X connect 11 0 10 0;
#X connect 11 1 10 1;
#X connect 12 0 2 0;
#X connect 13 0 19 0;
#X connect 14 0 15 0;
#X connect 14 1 13 1;
#X connect 15 0 13 0;
#X connect 16 0 26 0;
#X connect 20 0 14 0;
#X connect 21 0 23 0;
#X connect 22 0 21 0;
#X connect 22 1 21 1;
#X connect 26 0 4 0;
#X connect 26 0 7 0;
#X connect 26 1 9 0;
#X connect 26 1 6 0;
#X restore 1475 838 pd split-param;
#X obj 1522 983 *~ 0;
#X text 868 194 @;
#X text 859 223 @;
#X text 868 258 @;
#X text 907 259 @;
#X text 921 226 @;
#X text 905 195 @;
#X text 891 158 @;
#X text 833 187 @;
#X text 823 255 @;
#X text 889 294 @;
#X text 941 260 @;
#X text 946 193 @;
#X text 887 226 *;
#X text 887 277 *;
#X text 902 228 *;
#X text 886 209 *;
#X text 872 226 *;
#X text 887 245 *;
#X text 888 315 *;
#X text 936 225 *;
#X text 982 224 *;
#X text 892 178 *;
#X text 891 124 *;
#X text 846 226 *;
#X text 796 219 *;
#X text 772 497 ===================;
#X text 784 511 ===================;
#X text 771 525 ===================;
#X text 673 497 =============;
#X text 425 759 ===============================;
#X text 240 512 ===========;
#X text 1287 613 ========================================================================
;
#X text 1452 516 ======================;
#X text 19 161 ======================;
#X text 36 184 ======================;
#X text 18 211 ======================;
#X text 475 208 ===================;
#X text 1184 64 +++++++++++++++++++++;
#X text 451 953 ================================================;
#X text 810 585 D;
#X text 840 592 D;
#X text 881 608 D;
#X text 912 628 D;
#X text 915 655 D;
#X text 894 683 D;
#X text 851 690 D;
#X text 817 685 D;
#X text 134 663 ?;
#X text 133 465 ?;
#X text 233 297 ?;
#X text 249 154 ?;
#X text 537 399 ?;
#X text 560 575 ?;
#X text 653 579 ?;
#X text 1070 691 ?;
#X text 1110 577 ?;
#X text 1524 365 ?;
#X text 1473 330 ?;
#X text 1038 380 ?;
#X text 1056 275 ?;
#X text 1004 66 ?;
#X text 752 132 ?;
#X text 310 152 ?;
#X text 184 101 ?;
#X text 987 625 ?;
#X text 554 809 ~;
#X text 722 727 ~;
#X text 779 820 ~;
#X text 704 840 ~;
#X text 766 905 ~;
#X text 849 878 ~;
#X text 953 778 ~;
#X text 892 844 ~;
#X text 1001 884 ~;
#X text 1121 841 ~;
#X text 1016 796 ~;
#X text 1064 751 ~;
#X text 1214 689 ~;
#X text 1217 769 ~;
#X text 1347 840 ~;
#X text 1269 890 ~;
#X text 1421 694 ~;
#X text 1512 569 ~;
#X text 1570 742 ~;
#X text 1511 900 ~;
#X text 1555 476 ~;
#X text 1358 456 ~;
#X text 1318 536 ~;
#X text 1187 376 ~;
#X text 1103 367 ~;
#X text 874 375 ~;
#X text 980 452 ~;
#X text 809 471 ~;
#X text 666 429 ~;
#X text 741 337 ~;
#X text 780 266 ~;
#X text 655 208 ~;
#X text 775 168 ~;
#X text 843 119 ~;
#X text 966 147 ~;
#X text 1073 132 ~;
#X text 1163 253 ~;
#X text 1175 143 ~;
#X text 1281 275 ~;
#X text 1387 324 ~;
#X text 1399 192 ~;
#X text 1316 144 ~;
#X text 1429 106 ~;
#X text 1528 173 ~;
#X text 1576 253 ~;
#X text 1589 297 ~;
#X text 1600 427 ~;
#X text 1356 407 ~;
#X text 1445 468 ~;
#X text 1255 392 ~;
#X text 1346 304 ~;
#X text 1164 326 ~;
#X text 820 403 ~;
#X text 697 270 ~;
#X text 534 278 ~;
#X text 574 333 ~;
#X text 481 498 ~;
#X text 402 614 ~;
#X text 524 675 ~;
#X text 330 727 ~;
#X text 309 569 ~;
#X text 331 386 ~;
#X text 208 604 ~;
#X text 1399 571 !;
#X text 1362 663 !;
#X text 1451 654 !;
#X text 1388 483 !;
#X text 1449 407 !;
#X text 1295 492 !;
#X text 1302 346 !;
#X text 1418 199 !;
#X text 1309 117 !;
#X text 1446 57 !;
#X text 1553 139 !;
#X text 1537 239 !;
#X text 1163 202 !;
#X text 1280 826 !;
#X text 1404 895 !;
#X text 1410 955 !;
#X text 1600 835 !;
#X text 970 169 @;
#X text 1072 192 @;
#X text 1138 260 @;
#X text 1179 424 @;
#X text 1103 535 @;
#X text 987 584 @;
#X text 784 560 @;
#X text 662 343 @;
#X text 758 92 @;
#X text 996 31 @;
#X text 1290 137 @;
#X text 1465 379 @;
#X text 1442 699 @;
#X text 1229 858 @;
#X text 758 888 @;
#X text 504 888 @;
#X text 231 548 @;
#X text 152 259 @;
#X text 195 -1 @;
#X connect 1 0 18 0;
#X connect 2 0 32 0;
#X connect 3 0 166 0;
#X connect 4 0 142 0;
#X connect 5 0 114 0;
#X connect 6 0 8 0;
#X connect 6 0 55 0;
#X connect 6 0 116 0;
#X connect 7 0 34 0;
#X connect 7 0 181 0;
#X connect 8 0 9 0;
#X connect 9 0 10 0;
#X connect 9 0 120 0;
#X connect 10 0 11 0;
#X connect 11 0 12 0;
#X connect 11 0 119 0;
#X connect 12 0 13 0;
#X connect 13 0 26 0;
#X connect 13 0 117 0;
#X connect 14 0 137 0;
#X connect 15 0 136 0;
#X connect 16 0 7 0;
#X connect 17 0 133 0;
#X connect 18 0 134 0;
#X connect 19 0 16 0;
#X connect 19 0 35 0;
#X connect 19 0 181 1;
#X connect 20 0 21 0;
#X connect 20 0 36 0;
#X connect 20 0 182 0;
#X connect 21 0 19 0;
#X connect 22 0 165 0;
#X connect 23 0 17 0;
#X connect 24 0 31 0;
#X connect 25 0 30 0;
#X connect 26 0 27 0;
#X connect 27 0 118 0;
#X connect 28 0 29 0;
#X connect 28 0 37 0;
#X connect 28 0 182 1;
#X connect 29 0 20 0;
#X connect 30 0 1 0;
#X connect 31 0 23 0;
#X connect 32 0 144 0;
#X connect 33 0 109 0;
#X connect 34 0 139 0;
#X connect 35 0 139 0;
#X connect 36 0 139 0;
#X connect 37 0 139 0;
#X connect 38 0 41 0;
#X connect 39 0 43 0;
#X connect 40 0 42 0;
#X connect 41 0 44 1;
#X connect 41 0 45 0;
#X connect 42 0 45 1;
#X connect 42 0 46 0;
#X connect 43 0 46 1;
#X connect 43 0 34 1;
#X connect 44 0 37 1;
#X connect 45 0 36 1;
#X connect 46 0 35 1;
#X connect 47 0 16 1;
#X connect 48 0 50 0;
#X connect 49 0 51 0;
#X connect 50 0 21 1;
#X connect 51 0 29 1;
#X connect 52 0 49 0;
#X connect 52 0 48 0;
#X connect 52 0 47 0;
#X connect 53 0 65 0;
#X connect 54 0 79 0;
#X connect 54 0 173 0;
#X connect 55 0 56 0;
#X connect 56 0 57 0;
#X connect 56 0 124 0;
#X connect 57 0 58 0;
#X connect 58 0 59 0;
#X connect 58 0 123 0;
#X connect 59 0 60 0;
#X connect 60 0 72 0;
#X connect 60 0 121 0;
#X connect 61 0 59 1;
#X connect 61 0 57 1;
#X connect 61 0 55 1;
#X connect 61 0 72 1;
#X connect 62 0 60 1;
#X connect 62 0 58 1;
#X connect 62 0 56 1;
#X connect 62 0 73 1;
#X connect 63 0 54 0;
#X connect 64 0 127 0;
#X connect 65 0 128 0;
#X connect 66 0 63 0;
#X connect 66 0 80 0;
#X connect 66 0 173 1;
#X connect 67 0 68 0;
#X connect 67 0 81 0;
#X connect 67 0 174 0;
#X connect 68 0 66 0;
#X connect 69 0 64 0;
#X connect 70 0 77 0;
#X connect 71 0 76 0;
#X connect 72 0 73 0;
#X connect 73 0 122 0;
#X connect 74 0 75 0;
#X connect 74 0 82 0;
#X connect 74 0 174 1;
#X connect 75 0 67 0;
#X connect 76 0 53 0;
#X connect 77 0 69 0;
#X connect 78 0 110 0;
#X connect 79 0 138 0;
#X connect 80 0 138 0;
#X connect 81 0 138 0;
#X connect 82 0 138 0;
#X connect 83 0 90 0;
#X connect 84 0 87 0;
#X connect 85 0 89 0;
#X connect 86 0 88 0;
#X connect 87 0 90 1;
#X connect 87 0 91 0;
#X connect 88 0 91 1;
#X connect 88 0 92 0;
#X connect 89 0 92 1;
#X connect 89 0 79 1;
#X connect 90 0 82 1;
#X connect 91 0 81 1;
#X connect 92 0 80 1;
#X connect 93 0 63 1;
#X connect 94 0 96 0;
#X connect 95 0 97 0;
#X connect 96 0 68 1;
#X connect 97 0 75 1;
#X connect 98 0 95 0;
#X connect 98 0 94 0;
#X connect 98 0 93 0;
#X connect 99 0 168 0;
#X connect 100 0 169 0;
#X connect 101 0 112 0;
#X connect 102 0 44 0;
#X connect 103 0 104 0;
#X connect 104 0 85 0;
#X connect 104 0 86 0;
#X connect 104 0 84 0;
#X connect 104 0 83 0;
#X connect 105 0 106 0;
#X connect 106 0 39 0;
#X connect 106 0 40 0;
#X connect 106 0 38 0;
#X connect 106 0 102 0;
#X connect 107 0 103 0;
#X connect 108 0 105 0;
#X connect 109 0 108 0;
#X connect 110 0 107 0;
#X connect 111 0 98 0;
#X connect 112 0 111 0;
#X connect 113 0 52 0;
#X connect 114 0 113 0;
#X connect 115 0 4 0;
#X connect 116 0 4 0;
#X connect 116 0 150 0;
#X connect 117 0 152 2;
#X connect 118 0 152 3;
#X connect 119 0 152 1;
#X connect 120 0 152 0;
#X connect 121 0 151 2;
#X connect 122 0 151 3;
#X connect 123 0 151 1;
#X connect 124 0 151 0;
#X connect 126 0 130 0;
#X connect 127 0 61 0;
#X connect 128 0 62 0;
#X connect 129 0 128 1;
#X connect 129 0 127 1;
#X connect 130 0 65 0;
#X connect 130 0 64 0;
#X connect 130 1 129 0;
#X connect 131 0 132 0;
#X connect 132 0 17 0;
#X connect 132 0 18 0;
#X connect 132 1 135 0;
#X connect 133 0 14 0;
#X connect 134 0 15 0;
#X connect 135 0 134 1;
#X connect 136 0 27 1;
#X connect 136 0 13 1;
#X connect 136 0 11 1;
#X connect 136 0 9 1;
#X connect 137 0 26 1;
#X connect 137 0 12 1;
#X connect 137 0 10 1;
#X connect 137 0 8 1;
#X connect 138 0 4 0;
#X connect 138 0 150 0;
#X connect 138 0 158 0;
#X connect 138 0 157 0;
#X connect 139 0 4 0;
#X connect 139 0 150 0;
#X connect 139 0 158 0;
#X connect 139 0 157 0;
#X connect 140 0 143 0;
#X connect 140 0 141 1;
#X connect 141 0 0 0;
#X connect 142 0 0 0;
#X connect 143 0 142 1;
#X connect 144 0 149 0;
#X connect 145 0 146 0;
#X connect 146 0 147 0;
#X connect 147 0 148 0;
#X connect 148 0 144 0;
#X connect 148 1 149 1;
#X connect 149 0 6 0;
#X connect 150 0 141 0;
#X connect 151 0 54 0;
#X connect 151 1 66 0;
#X connect 151 2 67 0;
#X connect 151 3 74 0;
#X connect 152 0 7 0;
#X connect 152 1 19 0;
#X connect 152 2 20 0;
#X connect 152 3 28 0;
#X connect 153 0 156 0;
#X connect 153 0 154 1;
#X connect 154 0 125 0;
#X connect 155 0 125 0;
#X connect 156 0 155 1;
#X connect 157 0 154 0;
#X connect 158 0 155 0;
#X connect 159 0 161 0;
#X connect 159 1 160 0;
#X connect 160 0 70 1;
#X connect 160 0 71 1;
#X connect 161 0 70 1;
#X connect 161 0 71 1;
#X connect 162 0 164 0;
#X connect 162 1 163 0;
#X connect 163 0 24 1;
#X connect 163 0 25 1;
#X connect 164 0 25 1;
#X connect 164 0 24 1;
#X connect 165 0 24 0;
#X connect 166 0 25 0;
#X connect 167 0 165 0;
#X connect 167 0 166 0;
#X connect 167 1 162 0;
#X connect 168 0 70 0;
#X connect 169 0 71 0;
#X connect 170 0 168 0;
#X connect 170 0 169 0;
#X connect 170 1 159 0;
#X connect 171 0 170 0;
#X connect 172 0 167 0;
#X connect 173 0 185 0;
#X connect 174 0 185 1;
#X connect 175 0 181 2;
#X connect 176 0 182 2;
#X connect 177 0 173 2;
#X connect 178 0 174 2;
#X connect 179 0 187 0;
#X connect 180 0 158 0;
#X connect 180 0 157 0;
#X connect 181 0 186 0;
#X connect 182 0 186 1;
#X connect 183 0 158 0;
#X connect 183 0 157 0;
#X connect 184 0 189 0;
#X connect 185 0 180 0;
#X connect 185 0 188 0;
#X connect 186 0 183 0;
#X connect 186 0 190 0;
#X connect 187 0 180 1;
#X connect 187 1 188 1;
#X connect 188 0 125 0;
#X connect 189 0 183 1;
#X connect 189 1 190 1;
#X connect 190 0 125 0;
#X restore 50 233 pd synthesis;
#X obj 406 275 hsl 128 15 0 1 0 0 empty empty empty -2 -8 0 10 -262144
-1 -1 0 1;
#X obj 559 353 hsl 128 15 0 1 0 0 empty empty empty -2 -8 0 10 -262144
-1 -1 0 1;
#X obj 402 329 hsl 128 15 0 1 0 0 empty empty empty -2 -8 0 10 -262144
-1 -1 0 1;
#X obj 235 358 hsl 128 15 0 1 0 0 empty empty empty -2 -8 0 10 -262144
-1 -1 0 1;
#X obj 563 301 hsl 128 15 0 1 0 0 empty empty empty -2 -8 0 10 -262144
-1 -1 0 1;
#X obj 566 251 hsl 128 15 0 1 0 0 empty empty empty -2 -8 0 10 -262144
-1 -1 0 1;
#X obj 234 301 hsl 128 15 0 1 0 0 empty empty empty -2 -8 0 10 -262144
-1 -1 0 1;
#X obj 237 252 hsl 128 15 0 1 0 0 empty empty empty -2 -8 0 10 -262144
-1 -1 0 1;
#X obj 232 274 s start_alt;
#X obj 233 327 s density_alt;
#X obj 230 379 s blend_alt;
#X obj 401 354 s pitch_alt;
#X obj 563 274 s size_alt;
#X obj 560 326 s overlap_alt;
#X obj 556 377 s window_alt;
#X obj 404 296 s speed_alt;
#N canvas 0 50 384 356 sync-phasor 0;
#X obj 35 70 phasor~;
#X obj 59 114 samphold~;
#X obj 38 152 -~;
#X obj 79 177 expr~ $v1 < 0;
#X obj 24 223 +~;
#X obj 126 41 receive~ sync-in;
#X obj 31 20 inlet~;
#X obj 27 266 outlet~;
#X connect 0 0 1 0;
#X connect 0 0 2 0;
#X connect 1 0 2 1;
#X connect 2 0 3 0;
#X connect 2 0 4 0;
#X connect 3 0 4 1;
#X connect 4 0 7 0;
#X connect 5 0 1 1;
#X connect 6 0 0 0;
#X restore 707 544 pd sync-phasor;
#X obj 260 456 tgl 30 0 empty empty empty 17 7 0 10 -262144 -1 -1 0
1;
#X obj 261 505 s record;
#X obj 278 543 s file;
#X obj 306 592 s source;
#X obj 326 623 s reset;
#X obj 336 658 s freeze;
#X obj 299 456 tgl 30 0 empty empty empty 17 7 0 10 -262144 -1 -1 0
1;
#X obj 336 457 tgl 30 0 empty empty empty 17 7 0 10 -262144 -1 -1 0
1;
#X obj 375 457 tgl 30 0 empty empty empty 17 7 0 10 -262144 -1 -1 0
1;
#X obj 414 457 tgl 30 0 empty empty empty 17 7 0 10 -262144 -1 -1 0
1;
#N canvas 0 50 844 613 scrambler 0;
#X obj 87 281 inlet~;
#X obj 84 308 inlet~;
#X obj 86 345 inlet~;
#X obj 84 373 inlet~;
#X obj 147 490 outlet~;
#X obj 212 491 outlet~;
#X obj 288 493 outlet~;
#X obj 353 494 outlet~;
#X obj 197 301 *~;
#X obj 231 305 *~;
#X obj 265 302 *~;
#X obj 299 303 *~;
#X obj 197 333 *~;
#X obj 231 334 *~;
#X obj 265 334 *~;
#X obj 299 335 *~;
#X obj 197 364 *~;
#X obj 232 370 *~;
#X obj 265 365 *~;
#X obj 299 366 *~;
#X obj 196 394 *~;
#X obj 230 395 *~;
#X obj 264 395 *~;
#X obj 298 396 *~;
#X obj 461 309 == 0;
#X obj 506 311 == 1;
#X obj 548 310 == 2;
#X obj 588 311 == 3;
#X obj 460 335 tgl 15 0 empty empty empty 17 7 0 10 -262144 -1 -1 1
1;
#X obj 507 339 tgl 15 0 empty empty empty 17 7 0 10 -262144 -1 -1 0
1;
#X obj 545 339 tgl 15 0 empty empty empty 17 7 0 10 -262144 -1 -1 0
1;
#X obj 588 339 tgl 15 0 empty empty empty 17 7 0 10 -262144 -1 -1 0
1;
#X obj 507 360 == 0;
#X obj 552 362 == 1;
#X obj 594 361 == 2;
#X obj 458 360 == 3;
#X obj 506 386 tgl 15 0 empty empty empty 17 7 0 10 -262144 -1 -1 1
1;
#X obj 553 390 tgl 15 0 empty empty empty 17 7 0 10 -262144 -1 -1 0
1;
#X obj 591 390 tgl 15 0 empty empty empty 17 7 0 10 -262144 -1 -1 0
1;
#X obj 458 388 tgl 15 0 empty empty empty 17 7 0 10 -262144 -1 -1 0
1;
#X obj 539 414 == 0;
#X obj 584 416 == 1;
#X obj 458 411 == 2;
#X obj 498 412 == 3;
#X obj 538 440 tgl 15 0 empty empty empty 17 7 0 10 -262144 -1 -1 1
1;
#X obj 585 444 tgl 15 0 empty empty empty 17 7 0 10 -262144 -1 -1 0
1;
#X obj 455 440 tgl 15 0 empty empty empty 17 7 0 10 -262144 -1 -1 0
1;
#X obj 498 440 tgl 15 0 empty empty empty 17 7 0 10 -262144 -1 -1 0
1;
#X obj 583 462 == 0;
#X obj 454 465 == 1;
#X obj 496 464 == 2;
#X obj 536 465 == 3;
#X obj 582 488 tgl 15 0 empty empty empty 17 7 0 10 -262144 -1 -1 1
1;
#X obj 455 493 tgl 15 0 empty empty empty 17 7 0 10 -262144 -1 -1 0
1;
#X obj 493 493 tgl 15 0 empty empty empty 17 7 0 10 -262144 -1 -1 0
1;
#X obj 536 493 tgl 15 0 empty empty empty 17 7 0 10 -262144 -1 -1 0
1;
#X floatatom 528 250 5 0 0 0 - - -, f 5;
#X obj 581 112 f 0;
#X obj 631 88 + 1;
#X obj 578 73 bng 15 250 50 0 empty empty empty 17 7 0 10 -262144 -1
-1;
#X obj 632 120 % 4;
#X obj 532 44 r file;
#X obj 598 19 r initbang;
#X connect 0 0 8 0;
#X connect 0 0 9 0;
#X connect 0 0 10 0;
#X connect 0 0 11 0;
#X connect 1 0 12 0;
#X connect 1 0 13 0;
#X connect 1 0 14 0;
#X connect 1 0 15 0;
#X connect 2 0 16 0;
#X connect 2 0 17 0;
#X connect 2 0 18 0;
#X connect 2 0 19 0;
#X connect 3 0 20 0;
#X connect 3 0 21 0;
#X connect 3 0 22 0;
#X connect 3 0 23 0;
#X connect 8 0 4 0;
#X connect 9 0 5 0;
#X connect 10 0 6 0;
#X connect 11 0 7 0;
#X connect 12 0 4 0;
#X connect 13 0 5 0;
#X connect 14 0 6 0;
#X connect 15 0 7 0;
#X connect 16 0 4 0;
#X connect 17 0 5 0;
#X connect 18 0 6 0;
#X connect 19 0 7 0;
#X connect 20 0 4 0;
#X connect 21 0 5 0;
#X connect 22 0 6 0;
#X connect 23 0 7 0;
#X connect 24 0 28 0;
#X connect 25 0 29 0;
#X connect 26 0 30 0;
#X connect 27 0 31 0;
#X connect 28 0 8 1;
#X connect 29 0 9 1;
#X connect 30 0 10 1;
#X connect 31 0 11 1;
#X connect 32 0 36 0;
#X connect 33 0 37 0;
#X connect 34 0 38 0;
#X connect 35 0 39 0;
#X connect 36 0 13 1;
#X connect 37 0 14 1;
#X connect 38 0 15 1;
#X connect 39 0 12 1;
#X connect 40 0 44 0;
#X connect 41 0 45 0;
#X connect 42 0 46 0;
#X connect 43 0 47 0;
#X connect 44 0 18 1;
#X connect 45 0 19 1;
#X connect 46 0 16 1;
#X connect 47 0 17 1;
#X connect 48 0 52 0;
#X connect 49 0 53 0;
#X connect 50 0 54 0;
#X connect 51 0 55 0;
#X connect 52 0 23 1;
#X connect 53 0 20 1;
#X connect 54 0 21 1;
#X connect 55 0 22 1;
#X connect 56 0 24 0;
#X connect 56 0 25 0;
#X connect 56 0 26 0;
#X connect 56 0 27 0;
#X connect 56 0 35 0;
#X connect 56 0 32 0;
#X connect 56 0 33 0;
#X connect 56 0 34 0;
#X connect 56 0 42 0;
#X connect 56 0 43 0;
#X connect 56 0 40 0;
#X connect 56 0 41 0;
#X connect 56 0 49 0;
#X connect 56 0 50 0;
#X connect 56 0 51 0;
#X connect 56 0 48 0;
#X connect 57 0 58 0;
#X connect 57 0 56 0;
#X connect 58 0 60 0;
#X connect 59 0 57 0;
#X connect 60 0 57 1;
#X connect 61 0 59 0;
#X connect 62 0 59 0;
#X restore 719 604 pd scrambler;
#N canvas 1247 334 588 368 split-param 0;
#X obj 140 40 inlet;
#X obj 50 315 outlet;
#X obj 231 316 outlet;
#X obj 101 224 -;
#X obj 112 157 t b f;
#X msg 102 193 1;
#X obj 225 132 - 1;
#X msg 150 133 0;
#X obj 96 261 * 20;
#X msg 184 137 1;
#X obj 171 239 *;
#X obj 168 209 t f f;
#X obj 164 261 * 4;
#X obj 101 224 -;
#X obj 112 157 t b f;
#X msg 102 193 1;
#X obj 139 71 * 2;
#X obj 225 132 - 1;
#X msg 150 133 0;
#X obj 96 261 * 20;
#X msg 184 137 1;
#X obj 171 239 *;
#X obj 168 209 t f f;
#X obj 164 261 * 4;
#X text 210 47 lets us control two parameters with one input;
#X text 266 108 parameter is split down middle;
#X obj 140 103 moses 1;
#X obj 140 103 moses 1;
#X connect 0 0 16 0;
#X connect 3 0 8 0;
#X connect 4 0 5 0;
#X connect 4 1 3 1;
#X connect 5 0 3 0;
#X connect 6 0 11 0;
#X connect 7 0 11 0;
#X connect 8 0 1 0;
#X connect 9 0 4 0;
#X connect 10 0 12 0;
#X connect 11 0 10 0;
#X connect 11 1 10 1;
#X connect 12 0 2 0;
#X connect 13 0 19 0;
#X connect 14 0 15 0;
#X connect 14 1 13 1;
#X connect 15 0 13 0;
#X connect 16 0 26 0;
#X connect 20 0 14 0;
#X connect 21 0 23 0;
#X connect 22 0 21 0;
#X connect 22 1 21 1;
#X connect 26 0 4 0;
#X connect 26 0 7 0;
#X connect 26 1 9 0;
#X connect 26 1 6 0;
#X restore 698 629 pd split-param;
#X obj 68 449 metro 300;
#X obj 101 519 metro 500;
#X obj 146 428 tgl 15 0 empty empty empty 17 7 0 10 -262144 -1 -1 0
1;
#X obj 89 480 metro 500;
#X obj 148 563 metro 800;
#X obj 180 588 metro 1300;
#X obj 377 745 r pitch;
#X obj 372 812 mtof~;
#X obj 372 785 * 60;
#X text 424 774 this will get your oscillators to track the pitch input
1v/o over a 5V range;
#X text 559 59 Plasma Membrane;
#X text 548 98 By Eli Pechman 2018;
#X text 547 122 Made for Qubit Nebulae v2;
#X text 543 178 www.MysticCircuits.com;
#X text 541 196 www.QubitElectronix.com;
#X connect 0 0 8 0;
#X connect 9 0 6 0;
#X connect 10 0 7 0;
#X connect 11 0 5 0;
#X connect 12 0 4 0;
#X connect 13 0 2 0;
#X connect 14 0 3 0;
#X connect 15 0 1 0;
#X connect 20 0 35 0;
#X connect 21 0 34 0;
#X connect 22 0 31 0;
#X connect 23 0 30 0;
#X connect 24 0 33 0;
#X connect 25 0 32 0;
#X connect 26 0 29 0;
#X connect 27 0 28 0;
#X connect 37 0 38 0;
#X connect 43 0 39 0;
#X connect 44 0 40 0;
#X connect 45 0 41 0;
#X connect 46 0 42 0;
#X connect 49 0 37 0;
#X connect 50 0 45 0;
#X connect 51 0 49 0;
#X connect 51 0 50 0;
#X connect 51 0 52 0;
#X connect 51 0 53 0;
#X connect 51 0 54 0;
#X connect 52 0 43 0;
#X connect 53 0 46 0;
#X connect 54 0 44 0;
#X connect 55 0 57 0;
#X connect 57 0 56 0;
