#N canvas 324 604 450 300 10;
#X obj 74 23 loadbang;
#X obj 74 45 delay 300;
#X obj 102 68 s initbang;
#X msg 23 68 \; pd dsp 1 \;;
#X obj 120 132 r initbang;
#X msg 120 154 100;
#X obj 120 176 osc~;
#X obj 118 228 dac~;
#X connect 0 0 1 0;
#X connect 1 0 2 0;
#X connect 1 0 3 0;
#X connect 4 0 5 0;
#X connect 5 0 6 0;
#X connect 6 0 7 0;
#X connect 6 0 7 1;
