#N canvas 1 410 1678 995 16;
#X obj 700 456 s cv0;
#X obj 715 414 s cv1;
#X obj 718 381 s cv2;
#X obj 725 346 s cv3;
#X obj 732 314 s cv4;
#X obj 737 283 s cv5;
#X obj 743 252 s cv6;
#X obj 747 215 s cv7;
#X obj 809 392 s pot0;
#X obj 812 356 s pot1;
#X obj 813 323 s pot2;
#X obj 815 287 s pot3;
#X obj 921 191 s status;
#X msg 710 102 open;
#X obj 710 44 r initbang;
#X obj 1035 42 loadbang;
#X obj 1035 93 delay 300;
#X obj 1064 166 s initbang;
#X msg 1035 212 \; pd dsp 1 \;;
#X obj 35 589 r cv0;
#X obj 45 629 r cv1;
#X obj 107 592 r cv2;
#X obj 104 633 r cv3;
#X obj 171 589 r cv4;
#X obj 168 629 r cv5;
#X obj 230 591 r cv6;
#X obj 238 634 r cv7;
#X obj 354 588 r pot0;
#X obj 354 625 r pot1;
#X obj 431 583 r pot2;
#X obj 430 626 r pot3;
#X obj 507 621 r pot7;
#X obj 504 589 r pot6;
#X obj 814 215 s pot7;
#X obj 812 251 s pot6;
#X obj 780 102 metro 10;
#X text 28 75 nebulae_adc: open loads the SPI \, etc. smooth sets number
samples to average (1 \, 2 \, 4 \, 8 \, 16) deadband is a hysteresis
threshold (0-5) Sending a bang to the inlet will read all 14 ADC channels
and apply all smoothing/hysteresis. Run with -verbose option to use
this test patch. All values should print out in order.;
#X obj 47 751 pack f f f f f f f f;
#X obj 46 803 print cv:;
#X obj 356 748 pack f f f f f f;
#X obj 356 777 print pots:;
#X obj 709 718 r status;
#X obj 693 783 print status:;
#X obj 710 153 nebulae_control_adc;
#X connect 13 0 43 0;
#X connect 14 0 13 0;
#X connect 14 0 35 0;
#X connect 15 0 16 0;
#X connect 16 0 17 0;
#X connect 16 0 18 0;
#X connect 19 0 37 0;
#X connect 20 0 37 1;
#X connect 21 0 37 2;
#X connect 22 0 37 3;
#X connect 23 0 37 4;
#X connect 24 0 37 5;
#X connect 25 0 37 6;
#X connect 26 0 37 7;
#X connect 27 0 39 0;
#X connect 28 0 39 1;
#X connect 29 0 39 2;
#X connect 30 0 39 3;
#X connect 31 0 39 5;
#X connect 32 0 39 4;
#X connect 35 0 43 0;
#X connect 37 0 38 0;
#X connect 39 0 40 0;
#X connect 41 0 42 0;
#X connect 43 0 0 0;
#X connect 43 1 1 0;
#X connect 43 2 2 0;
#X connect 43 3 3 0;
#X connect 43 4 4 0;
#X connect 43 5 5 0;
#X connect 43 6 6 0;
#X connect 43 7 7 0;
#X connect 43 8 8 0;
#X connect 43 9 9 0;
#X connect 43 10 10 0;
#X connect 43 11 11 0;
#X connect 43 12 34 0;
#X connect 43 13 33 0;
#X connect 43 14 12 0;
