#N canvas 571 553 987 485 10;
#X obj 562 64 nebulae_shiftreg;
#X obj 297 143 s button_next;
#X obj 408 143 s gate_source;
#X obj 517 143 s button_source;
#X obj 635 143 s button_freeze;
#X obj 755 144 s button_record;
#X obj 871 144 s button_reset;
#X obj 625 365 pack f f f f f f;
#X obj 625 209 r button_next;
#X obj 646 234 r gate_source;
#X obj 668 258 r button_source;
#X obj 690 285 r button_freeze;
#X obj 712 312 r button_record;
#X obj 734 336 r button_reset;
#X obj 625 420 print states:;
#X obj 37 144 loadbang;
#X obj 37 166 delay 300;
#X msg 37 251 \; pd dsp 1 \;;
#X obj 56 207 s initbang;
#X obj 536 289 r initbang;
#X obj 536 311 metro 10;
#X text 266 24 nebulae_shiftregister:;
#X text 32 54 updates all button inputs and source gate input at fixed
rate.;
#X connect 0 0 1 0;
#X connect 0 1 2 0;
#X connect 0 2 3 0;
#X connect 0 3 4 0;
#X connect 0 4 5 0;
#X connect 0 5 6 0;
#X connect 7 0 14 0;
#X connect 8 0 7 0;
#X connect 9 0 7 1;
#X connect 10 0 7 2;
#X connect 11 0 7 3;
#X connect 12 0 7 4;
#X connect 13 0 7 5;
#X connect 15 0 16 0;
#X connect 16 0 17 0;
#X connect 16 0 18 0;
#X connect 19 0 20 0;
#X connect 20 0 7 0;
