#N canvas 1681 54 1918 998 24;
#X obj 706 382 nebulae_leds;
#X obj 27 16 loadbang;
#X obj 27 50 delay 300;
#X obj 27 147 s initbang;
#X obj 612 107 r led0;
#X obj 635 146 r led1;
#X obj 655 182 r led2;
#X obj 678 221 r led3;
#X obj 727 107 r led4;
#X obj 750 146 r led5;
#X obj 770 182 r led6;
#X obj 793 221 r led7;
#X obj 859 105 r led8;
#X obj 882 144 r led9;
#X obj 902 180 r led10;
#X obj 925 219 r led11;
#X obj 974 105 r led12;
#X obj 997 144 r led13;
#X obj 1017 180 r led14;
#X obj 1040 219 r led15;
#X obj 244 180 metro 10;
#X obj 443 115 r initbang;
#X obj 250 432 snapshot~;
#X obj 274 581 s led0;
#X obj 297 620 s led1;
#X obj 317 656 s led2;
#X obj 340 695 s led3;
#X obj 389 581 s led4;
#X obj 412 620 s led5;
#X obj 432 656 s led6;
#X obj 455 695 s led7;
#X obj 521 579 s led8;
#X obj 544 618 s led9;
#X obj 564 654 s led10;
#X obj 587 693 s led11;
#X obj 702 693 s led15;
#X obj 679 654 s led14;
#X obj 659 618 s led13;
#X obj 636 579 s led12;
#X obj 79 536 print line;
#X obj 251 358 phasor~ 0.5;
#X msg 35 86 \; pd dsp 1 \;;
#X msg 443 149 open;
#X obj 827 598 s led16;
#X obj 1100 281 r led16;
#X connect 1 0 2 0;
#X connect 2 0 3 0;
#X connect 2 0 41 0;
#X connect 4 0 0 1;
#X connect 5 0 0 2;
#X connect 6 0 0 3;
#X connect 7 0 0 4;
#X connect 8 0 0 5;
#X connect 9 0 0 6;
#X connect 10 0 0 7;
#X connect 11 0 0 8;
#X connect 12 0 0 9;
#X connect 13 0 0 10;
#X connect 14 0 0 11;
#X connect 15 0 0 12;
#X connect 16 0 0 13;
#X connect 17 0 0 14;
#X connect 18 0 0 15;
#X connect 19 0 0 16;
#X connect 20 0 0 0;
#X connect 20 0 22 0;
#X connect 21 0 20 0;
#X connect 21 0 42 0;
#X connect 22 0 39 0;
#X connect 22 0 23 0;
#X connect 22 0 24 0;
#X connect 22 0 25 0;
#X connect 22 0 26 0;
#X connect 22 0 27 0;
#X connect 22 0 28 0;
#X connect 22 0 29 0;
#X connect 22 0 30 0;
#X connect 22 0 31 0;
#X connect 22 0 32 0;
#X connect 22 0 33 0;
#X connect 22 0 34 0;
#X connect 22 0 38 0;
#X connect 22 0 37 0;
#X connect 22 0 36 0;
#X connect 22 0 35 0;
#X connect 22 0 43 0;
#X connect 40 0 22 0;
#X connect 42 0 0 0;
#X connect 44 0 0 17;
