#N canvas 365 202 1632 1040 10;
#X obj 206 -381 hsl 128 15 0 1 0 0 empty empty empty -2 -8 0 10 -204786
-1 -1 10160 1;
#X obj 203 -350 s speed;
#X obj 598 -375 bng 30 250 50 0 empty empty empty 17 7 0 10 -262144
-1 -1;
#X obj 63 318 netreceive 3000;
#X obj 146 356 route start size density overlap blend window pitch
speed record file source reset freeze;
#X obj 626 349 route start_alt size_alt density_alt overlap_alt blend_alt
window_alt pitch_alt record_alt file_alt source_alt freeze_alt;
#X obj 154 560 s size;
#X obj 207 543 s density;
#X obj 237 516 s overlap;
#X obj 267 484 s blend;
#X obj 298 450 s window;
#X obj 328 429 s pitch;
#X obj 359 402 s speed;
#X obj 373 543 s record;
#X obj 411 518 s file;
#X obj 454 494 s source;
#X obj 480 460 s reset;
#X obj 513 426 s freeze;
#X obj 621 533 s start_alt;
#X obj 639 508 s size_alt;
#X obj 654 485 s density_alt;
#X obj 672 460 s overlap_alt;
#X obj 755 539 s blend_alt;
#X obj 773 491 s window_alt;
#X obj 792 444 s pitch_alt;
#X obj 985 540 s freeze_alt;
#X obj 862 540 s record_alt;
#X obj 880 515 s file_alt;
#X obj 898 493 s source_alt;
#X text 50 291 Receive Controls via TCP;
#X text 290 313 primary controls;
#X text 639 308 secondary controls (accessible when source is held)
;
#X obj 98 576 s start;
#N canvas 832 436 1012 821 seq2 0;
#X obj 224 459 float;
#X floatatom 168 484 5 0 0 0 - - -;
#X obj 225 359 bng 15 250 50 0 empty empty empty 17 7 0 10 -262144
-1 -1;
#X obj 291 456 + 1;
#X msg 452 401 0;
#X obj 224 337 metro 500;
#X obj 94 276 tgl 15 0 empty empty empty 17 7 0 10 -262144 -1 -1 0
1;
#X obj 223 533 bng 15 250 50 0 empty empty empty 17 7 0 10 -262144
-1 -1;
#X obj 251 534 bng 15 250 50 0 empty empty empty 17 7 0 10 -262144
-1 -1;
#X obj 293 531 bng 15 250 50 0 empty empty empty 17 7 0 10 -262144
-1 -1;
#X obj 310 251 hsl 128 15 0 1 0 0 empty empty empty -2 -8 0 10 -262144
-1 -1 0 1;
#X floatatom 225 628 5 0 0 0 - - -;
#X obj 226 710 bng 15 250 50 0 empty empty empty 17 7 0 10 -262144
-1 -1;
#X obj 253 710 bng 15 250 50 0 empty empty empty 17 7 0 10 -262144
-1 -1;
#X obj 224 500 route 0 1;
#X floatatom 307 323 5 0 0 0 - - -;
#X obj 94 248 r seq2;
#X obj 225 591 random 2;
#X obj 307 278 * 250;
#X obj 225 666 route 0 1;
#X msg 160 733 0, f 4;
#X floatatom 546 595 5 0 0 0 - - -;
#X msg 545 666 0;
#X obj 289 761 s slice2;
#X obj 394 589 s slice1;
#X obj 303 589 s slice3;
#X obj 224 761 s slice1;
#X obj 544 710 s steps;
#X obj 299 406 r steps;
#X obj 160 760 s steps;
#X obj 190 102 r density;
#X obj 452 362 r reseter;
#N canvas 1195 819 450 300 ClocksProbability 0;
#X obj 167 174 >= 0;
#X obj 192 70 hsl 128 15 0 1 0 0 empty empty empty -2 -8 0 10 -262144
-1 -1 0 1;
#X floatatom 189 151 5 0 0 0 - - -;
#X obj 29 108 noise~;
#X obj 101 144 snapshot~;
#X floatatom 101 176 5 0 0 0 - - -;
#X obj 167 225 bng 15 250 50 0 empty empty empty 17 7 0 10 -262144
-1 -1;
#X obj 227 105 * 2;
#X obj 227 128 - 1;
#X floatatom 188 107 5 0 0 0 - - -;
#X obj 188 25 r blend;
#X obj 167 198 route 1 0, f 13;
#X obj 252 227 bng 15 250 50 0 empty empty empty 17 7 0 10 -262144
-1 -1;
#X obj 294 257 s lines;
#X text 120 52 100%;
#X text 350 51 0%;
#X text 347 256 ? for muting;
#X obj 99 77 inlet;
#X obj 167 258 outlet;
#X connect 0 0 11 0;
#X connect 1 0 7 0;
#X connect 1 0 9 0;
#X connect 2 0 0 1;
#X connect 3 0 4 0;
#X connect 4 0 5 0;
#X connect 4 0 0 0;
#X connect 6 0 18 0;
#X connect 7 0 8 0;
#X connect 8 0 2 0;
#X connect 10 0 1 0;
#X connect 11 0 6 0;
#X connect 11 1 12 0;
#X connect 12 0 13 0;
#X connect 17 0 4 0;
#X restore 142 406 pd ClocksProbability;
#X obj 268 375 s clock2;
#X obj 602 409 bng 15 250 50 0 empty empty empty 17 7 0 10 -262144
-1 -1;
#N canvas 892 147 433 343 Repeatter 0;
#X obj 171 181 >= 0;
#X obj 196 66 hsl 128 15 0 1 0 0 empty empty empty -2 -8 0 10 -262144
-1 -1 0 1;
#X floatatom 193 158 5 0 0 0 - - -;
#X obj 98 109 noise~;
#X obj 105 151 snapshot~;
#X floatatom 105 183 5 0 0 0 - - -;
#X obj 171 233 bng 15 250 50 0 empty empty empty 17 7 0 10 -262144
-1 -1;
#X obj 231 112 * 2;
#X floatatom 192 114 5 0 0 0 - - -;
#X obj 171 206 route 1 0;
#X obj 214 234 bng 15 250 50 0 empty empty empty 17 7 0 10 -262144
-1 -1;
#X obj 192 32 r window;
#X obj 231 135 - 0.8;
#X text 18 71 clocks from metro from each algorithm, f 20;
#X text 282 97 another probability utility this time for window used
for adding steps \, repeating them and shiffle, f 23;
#X text 222 174 20-80% scaled for not so drastic results, f 21;
#X obj 156 265 outlet;
#X obj 224 263 outlet;
#X obj 32 109 r clock2;
#X connect 0 0 9 0;
#X connect 1 0 7 0;
#X connect 1 0 8 0;
#X connect 2 0 0 1;
#X connect 3 0 4 0;
#X connect 4 0 5 0;
#X connect 4 0 0 0;
#X connect 6 0 16 0;
#X connect 7 0 12 0;
#X connect 9 0 6 0;
#X connect 9 1 10 0;
#X connect 10 0 17 0;
#X connect 11 0 1 0;
#X connect 12 0 2 0;
#X connect 18 0 4 0;
#X restore 602 378 pd Repeatter;
#X obj 671 407 bng 15 250 50 0 empty empty empty 17 7 0 10 -262144
-1 -1;
#X obj 545 564 random 3;
#X obj 546 631 route 0 1 2;
#X msg 579 666 1;
#X msg 618 666 2;
#X obj 621 712 s slice4;
#X obj 307 300 + 50;
#X text 55 674 If 0 -> Go to step 0 and play slice1, f 23;
#X text 290 687 If 1 -> play slice 2;
#X obj 303 163 list prepend 0;
#X obj 384 120 tgl 30 0 empty empty empty 17 7 0 10 -262144 -1 -1 0
1;
#X obj 304 192 route 0 1;
#X floatatom 303 224 5 0 0 0 - - -;
#X floatatom 342 224 5 0 0 0 - - -;
#X obj 386 67 r initbang;
#X msg 384 89 0;
#X obj 468 92 change;
#X obj 468 66 r record_alt;
#X text 538 145 This is gate allowing tap tempo - external clock;
#X obj 176 191 r taptempo;
#X text 421 499 this is basic step sequencer;
#X text 629 436 step repeat with probability (via window knob) inside
the patcher;
#X connect 0 0 1 0;
#X connect 0 0 3 0;
#X connect 0 0 14 0;
#X connect 2 0 32 0;
#X connect 2 0 33 0;
#X connect 3 0 0 1;
#X connect 4 0 0 1;
#X connect 5 0 2 0;
#X connect 6 0 5 0;
#X connect 7 0 17 0;
#X connect 8 0 25 0;
#X connect 9 0 4 0;
#X connect 9 0 24 0;
#X connect 9 0 37 0;
#X connect 10 0 18 0;
#X connect 11 0 19 0;
#X connect 12 0 26 0;
#X connect 12 0 20 0;
#X connect 13 0 23 0;
#X connect 14 0 7 0;
#X connect 14 1 8 0;
#X connect 14 2 9 0;
#X connect 15 0 5 1;
#X connect 16 0 6 0;
#X connect 17 0 11 0;
#X connect 18 0 42 0;
#X connect 19 0 12 0;
#X connect 19 1 13 0;
#X connect 20 0 29 0;
#X connect 21 0 38 0;
#X connect 22 0 27 0;
#X connect 28 0 3 0;
#X connect 30 0 45 0;
#X connect 31 0 4 0;
#X connect 32 0 0 0;
#X connect 34 0 3 0;
#X connect 34 0 7 0;
#X connect 35 0 34 0;
#X connect 35 1 36 0;
#X connect 37 0 21 0;
#X connect 38 0 22 0;
#X connect 38 1 39 0;
#X connect 38 2 40 0;
#X connect 39 0 27 0;
#X connect 40 0 41 0;
#X connect 42 0 15 0;
#X connect 45 0 47 0;
#X connect 46 0 45 1;
#X connect 47 0 48 0;
#X connect 47 1 49 0;
#X connect 48 0 10 0;
#X connect 50 0 51 0;
#X connect 51 0 46 0;
#X connect 52 0 46 0;
#X connect 53 0 52 0;
#X connect 55 0 5 1;
#X restore 40 -6 pd seq2;
#N canvas 1083 73 875 1199 seq3 1;
#X obj 240 545 float;
#X floatatom 128 535 5 0 0 0 - - -;
#X obj 333 529 + 1;
#X msg 497 704 0;
#X obj 179 373 tgl 15 0 empty empty empty 17 7 0 10 -262144 -1 -1 0
1;
#X obj 197 621 bng 15 250 50 0 empty empty empty 17 7 0 10 -262144
-1 -1;
#X obj 265 621 bng 15 250 50 0 empty empty empty 17 7 0 10 -262144
-1 -1;
#X obj 319 619 bng 15 250 50 0 empty empty empty 17 7 0 10 -262144
-1 -1;
#X floatatom 378 378 5 0 0 0 - - -;
#X floatatom 182 706 5 0 0 0 - - -;
#X obj 187 777 bng 15 250 50 0 empty empty empty 17 7 0 10 -262144
-1 -1;
#X obj 314 849 bng 15 250 50 0 empty empty empty 17 7 0 10 -262144
-1 -1;
#X floatatom 379 429 5 0 0 0 - - -;
#X obj 183 665 random 2;
#X obj 497 681 bng 15 250 50 0 empty empty empty 17 7 0 10 -262144
-1 -1;
#X msg 157 812 0;
#X floatatom 650 682 5 0 0 0 - - -;
#X obj 647 659 random 2;
#X obj 649 718 route 0 1;
#X msg 642 755 0;
#X msg 681 755 1;
#X obj 179 343 r seq3;
#X msg 261 670 2;
#X msg 255 900 1;
#X obj 183 742 route 1 0;
#X obj 313 909 bng 15 250 50 0 empty empty empty 17 7 0 10 -262144
-1 -1;
#X floatatom 269 1018 5 0 0 0 - - -;
#X obj 518 817 bng 15 250 50 0 empty empty empty 17 7 0 10 -262144
-1 -1;
#X floatatom 520 878 5 0 0 0 - - -;
#X obj 518 846 random 200;
#X obj 521 919 >= 180;
#X obj 521 952 route 1;
#X obj 521 982 bng 15 250 50 0 empty empty empty 17 7 0 10 -262144
-1 -1;
#X obj 521 1008 delay 1;
#X obj 376 348 * 200;
#X obj 307 141 r density;
#X obj 220 844 s slice1;
#X obj 333 727 s slice3;
#X obj 427 727 s slice1;
#X obj 351 899 s slice2;
#X obj 521 1042 s slice4;
#X obj 648 791 s steps3;
#X obj 377 466 r steps3;
#X obj 144 844 s steps3;
#X obj 73 843 s times3;
#X obj 263 727 s steps3;
#X obj 314 1038 s times3;
#X obj 453 920 s times3;
#X obj 255 934 s steps3;
#X obj 497 728 s steps3;
#X msg 113 813 100;
#X obj 453 896 + 20, f 6;
#X obj 496 657 r reseter;
#X obj 174 456 bng 15 250 50 0 empty empty empty 17 7 0 10 -262144
-1 -1;
#N canvas 411 424 450 300 ClocksProbability 0;
#X obj 167 174 >= 0;
#X obj 192 70 hsl 128 15 0 1 0 0 empty empty empty -2 -8 0 10 -262144
-1 -1 0 1;
#X floatatom 189 151 5 0 0 0 - - -;
#X obj 29 108 noise~;
#X obj 101 144 snapshot~;
#X floatatom 101 176 5 0 0 0 - - -;
#X obj 167 225 bng 15 250 50 0 empty empty empty 17 7 0 10 -262144
-1 -1;
#X obj 227 105 * 2;
#X obj 227 128 - 1;
#X floatatom 188 107 5 0 0 0 - - -;
#X obj 188 25 r blend;
#X obj 167 198 route 1 0, f 13;
#X obj 252 227 bng 15 250 50 0 empty empty empty 17 7 0 10 -262144
-1 -1;
#X obj 294 257 s lines;
#X text 120 52 100%;
#X text 350 51 0%;
#X text 347 256 ? for muting;
#X obj 99 77 inlet;
#X obj 167 258 outlet;
#X connect 0 0 11 0;
#X connect 1 0 7 0;
#X connect 1 0 9 0;
#X connect 2 0 0 1;
#X connect 3 0 4 0;
#X connect 4 0 5 0;
#X connect 4 0 0 0;
#X connect 6 0 18 0;
#X connect 7 0 8 0;
#X connect 8 0 2 0;
#X connect 10 0 1 0;
#X connect 11 0 6 0;
#X connect 11 1 12 0;
#X connect 12 0 13 0;
#X connect 17 0 4 0;
#X restore 174 495 pd ClocksProbability;
#X text 223 452 Probability of clocks;
#X obj 617 493 bng 15 250 50 0 empty empty empty 17 7 0 10 -262144
-1 -1;
#N canvas 892 147 433 343 Repeatter 0;
#X obj 171 181 >= 0;
#X obj 196 66 hsl 128 15 0 1 0 0 empty empty empty -2 -8 0 10 -262144
-1 -1 0 1;
#X floatatom 193 158 5 0 0 0 - - -;
#X obj 98 109 noise~;
#X obj 105 151 snapshot~;
#X floatatom 105 183 5 0 0 0 - - -;
#X obj 171 233 bng 15 250 50 0 empty empty empty 17 7 0 10 -262144
-1 -1;
#X obj 231 112 * 2;
#X floatatom 192 114 5 0 0 0 - - -;
#X obj 171 206 route 1 0;
#X obj 214 234 bng 15 250 50 0 empty empty empty 17 7 0 10 -262144
-1 -1;
#X obj 192 32 r window;
#X obj 231 135 - 0.8;
#X text 18 71 clocks from metro from each algorithm, f 20;
#X text 282 97 another probability utility this time for window used
for adding steps \, repeating them and shiffle, f 23;
#X text 222 174 20-80% scaled for not so drastic results, f 21;
#X obj 156 265 outlet;
#X obj 224 263 outlet;
#X obj 32 109 r clock3;
#X connect 0 0 9 0;
#X connect 1 0 7 0;
#X connect 1 0 8 0;
#X connect 2 0 0 1;
#X connect 3 0 4 0;
#X connect 4 0 5 0;
#X connect 4 0 0 0;
#X connect 6 0 16 0;
#X connect 7 0 12 0;
#X connect 9 0 6 0;
#X connect 9 1 10 0;
#X connect 10 0 17 0;
#X connect 11 0 1 0;
#X connect 12 0 2 0;
#X connect 18 0 4 0;
#X restore 617 462 pd Repeatter;
#X obj 686 491 bng 15 250 50 0 empty empty empty 17 7 0 10 -262144
-1 -1;
#X obj 219 472 s clock3;
#X obj 314 986 random 3;
#X obj 416 605 s slice4;
#X obj 380 321 hsl 128 15 0 1 0 0 empty empty empty -2 -8 0 10 -204800
-1 -1 0 1;
#X obj 240 422 metro 500;
#X obj 379 404 + 50;
#X text 78 906 comment, f 22;
#X obj 377 218 list prepend 0;
#X obj 459 174 tgl 30 0 empty empty empty 17 7 0 10 -261234 -1 -1 0
1;
#X obj 378 247 route 0 1;
#X floatatom 377 279 5 0 0 0 - - -;
#X floatatom 416 279 5 0 0 0 - - -;
#X obj 460 122 r initbang;
#X msg 458 144 0;
#X obj 542 147 change;
#X obj 542 121 r record_alt;
#X text 513 181 Gate on/off for tap tampo;
#X obj 180 213 r taptempo;
#X obj 241 581 route 0 1 2 3 4;
#X obj 382 798 s slice8;
#X connect 0 0 1 0;
#X connect 0 0 2 0;
#X connect 0 0 77 0;
#X connect 2 0 0 1;
#X connect 3 0 49 0;
#X connect 4 0 63 0;
#X connect 5 0 13 0;
#X connect 6 0 22 0;
#X connect 6 0 27 0;
#X connect 6 0 37 0;
#X connect 7 0 3 0;
#X connect 7 0 17 0;
#X connect 7 0 38 0;
#X connect 8 0 64 0;
#X connect 9 0 24 0;
#X connect 10 0 15 0;
#X connect 10 0 36 0;
#X connect 11 0 23 0;
#X connect 11 0 25 0;
#X connect 11 0 39 0;
#X connect 12 0 63 1;
#X connect 13 0 9 0;
#X connect 14 0 3 0;
#X connect 15 0 43 0;
#X connect 16 0 18 0;
#X connect 17 0 16 0;
#X connect 18 0 19 0;
#X connect 18 1 20 0;
#X connect 19 0 41 0;
#X connect 20 0 41 0;
#X connect 21 0 4 0;
#X connect 22 0 45 0;
#X connect 23 0 48 0;
#X connect 24 0 10 0;
#X connect 24 0 50 0;
#X connect 24 1 11 0;
#X connect 25 0 60 0;
#X connect 27 0 29 0;
#X connect 28 0 30 0;
#X connect 28 0 51 0;
#X connect 29 0 28 0;
#X connect 30 0 31 0;
#X connect 31 0 32 0;
#X connect 32 0 33 0;
#X connect 33 0 40 0;
#X connect 34 0 8 0;
#X connect 35 0 66 0;
#X connect 42 0 0 1;
#X connect 50 0 44 0;
#X connect 51 0 47 0;
#X connect 52 0 14 0;
#X connect 53 0 54 0;
#X connect 53 0 59 0;
#X connect 54 0 0 0;
#X connect 56 0 6 0;
#X connect 57 0 56 0;
#X connect 57 1 58 0;
#X connect 60 0 26 0;
#X connect 60 0 46 0;
#X connect 62 0 34 0;
#X connect 63 0 53 0;
#X connect 64 0 12 0;
#X connect 66 0 68 0;
#X connect 67 0 66 1;
#X connect 68 0 69 0;
#X connect 68 1 70 0;
#X connect 69 0 62 0;
#X connect 71 0 72 0;
#X connect 72 0 67 0;
#X connect 73 0 67 0;
#X connect 74 0 73 0;
#X connect 76 0 63 1;
#X connect 77 0 5 0;
#X connect 77 1 6 0;
#X connect 77 2 7 0;
#X connect 77 3 61 0;
#X connect 77 3 78 0;
#X restore 41 22 pd seq3;
#N canvas 1186 325 1212 862 seq4 0;
#X obj 282 431 float;
#X floatatom 282 480 5 0 0 0 - - -;
#X obj 342 429 + 1;
#X msg 596 458 0;
#X obj 282 332 metro 500;
#X obj 282 308 tgl 15 0 empty empty empty 17 7 0 10 -262144 -1 -1 0
1;
#X obj 359 532 bng 15 250 50 0 empty empty empty 17 7 0 10 -262144
-1 -1;
#X obj 392 532 bng 15 250 50 0 empty empty empty 17 7 0 10 -262144
-1 -1;
#X obj 434 538 bng 15 250 50 0 empty empty empty 17 7 0 10 -262144
-1 -1;
#X floatatom 432 279 5 0 0 0 - - -;
#X obj 265 550 noise~;
#X obj 265 597 snapshot~;
#X floatatom 265 626 5 0 0 0 - - -;
#X obj 265 655 >= 0;
#X obj 264 683 route 1 0;
#X obj 263 714 bng 15 250 50 0 empty empty empty 17 7 0 10 -262144
-1 -1;
#X obj 290 715 bng 15 250 50 0 empty empty empty 17 7 0 10 -262144
-1 -1;
#X obj 597 344 r reset;
#X obj 597 374 snapshot~;
#X floatatom 597 403 5 0 0 0 - - -;
#X obj 597 432 >= 0.25;
#X floatatom 433 340 5 0 0 0 - - -;
#X obj 432 256 * 300;
#X obj 433 306 + 10;
#X obj 256 255 r seq4;
#X obj 467 523 bng 15 250 50 0 empty empty empty 17 7 0 10 -262144
-1 -1;
#X obj 544 558 random 3;
#X floatatom 544 582 5 0 0 0 - - -;
#X obj 541 610 route 0 1 2;
#X obj 257 778 s slice3;
#X obj 390 590 s slice2;
#X obj 489 712 s slice1;
#X obj 622 711 s slice4;
#X obj 556 710 s slice3;
#X obj 714 725 bng 15 250 50 0 empty empty empty 17 7 0 10 -262144
-1 -1;
#X obj 373 482 sel 0 1 2 3;
#X obj 282 359 bng 15 250 50 0 empty empty empty 17 7 0 10 -262144
-1 -1;
#N canvas 411 424 450 300 ClocksProbability 0;
#X obj 167 174 >= 0;
#X obj 192 70 hsl 128 15 0 1 0 0 empty empty empty -2 -8 0 10 -262144
-1 -1 0 1;
#X floatatom 189 151 5 0 0 0 - - -;
#X obj 29 108 noise~;
#X obj 101 144 snapshot~;
#X floatatom 101 176 5 0 0 0 - - -;
#X obj 167 225 bng 15 250 50 0 empty empty empty 17 7 0 10 -262144
-1 -1;
#X obj 227 105 * 2;
#X obj 227 128 - 1;
#X floatatom 188 107 5 0 0 0 - - -;
#X obj 188 25 r blend;
#X obj 167 198 route 1 0, f 13;
#X obj 252 227 bng 15 250 50 0 empty empty empty 17 7 0 10 -262144
-1 -1;
#X obj 294 257 s lines;
#X text 120 52 100%;
#X text 350 51 0%;
#X text 347 256 ? for muting;
#X obj 99 77 inlet;
#X obj 167 258 outlet;
#X connect 0 0 11 0;
#X connect 1 0 7 0;
#X connect 1 0 9 0;
#X connect 2 0 0 1;
#X connect 3 0 4 0;
#X connect 4 0 5 0;
#X connect 4 0 0 0;
#X connect 6 0 18 0;
#X connect 7 0 8 0;
#X connect 8 0 2 0;
#X connect 10 0 1 0;
#X connect 11 0 6 0;
#X connect 11 1 12 0;
#X connect 12 0 13 0;
#X connect 17 0 4 0;
#X restore 282 396 pd ClocksProbability;
#X text 411 376 Probability of clocks;
#X obj 327 375 s clock4;
#X obj 711 646 bng 15 250 50 0 empty empty empty 17 7 0 10 -262144
-1 -1;
#X floatatom 680 697 5 0 0 0 - - -;
#X obj 712 675 random 4;
#X obj 725 700 route 1 2 3, f 28;
#X obj 693 474 r repeat;
#X msg 712 767 20;
#X msg 768 767 10;
#X obj 770 728 bng 15 250 50 0 empty empty empty 17 7 0 10 -262144
-1 -1;
#X obj 365 50 r density;
#X obj 438 230 hsl 128 15 0 1 0 0 empty empty empty -2 -8 0 10 -204800
-1 -1 0 1;
#X obj 435 127 list prepend 0;
#X obj 517 83 tgl 30 0 empty empty empty 17 7 0 10 -261234 -1 -1 0
1;
#X obj 436 156 route 0 1;
#X floatatom 435 188 5 0 0 0 - - -;
#X floatatom 474 188 5 0 0 0 - - -;
#X obj 518 31 r initbang;
#X msg 516 53 0;
#X obj 600 56 change;
#X obj 600 30 r record_alt;
#X obj 279 134 r taptempo;
#X text 571 90 Gate on/off allowing tap tampo to come thru;
#X obj 337 777 s slice4;
#X text 806 759 this is changing timing of the patch;
#X connect 0 0 1 0;
#X connect 0 0 2 0;
#X connect 0 0 35 0;
#X connect 2 0 0 1;
#X connect 3 0 0 1;
#X connect 4 0 36 0;
#X connect 5 0 4 0;
#X connect 6 0 11 0;
#X connect 7 0 30 0;
#X connect 8 0 31 0;
#X connect 9 0 23 0;
#X connect 10 0 11 0;
#X connect 11 0 12 0;
#X connect 12 0 13 0;
#X connect 13 0 14 0;
#X connect 14 0 15 0;
#X connect 14 1 16 0;
#X connect 15 0 29 0;
#X connect 16 0 61 0;
#X connect 17 0 18 0;
#X connect 18 0 19 0;
#X connect 19 0 20 0;
#X connect 20 0 3 0;
#X connect 22 0 9 0;
#X connect 23 0 4 1;
#X connect 23 0 21 0;
#X connect 24 0 5 0;
#X connect 25 0 3 0;
#X connect 25 0 26 0;
#X connect 26 0 27 0;
#X connect 27 0 28 0;
#X connect 28 0 31 0;
#X connect 28 1 33 0;
#X connect 28 2 32 0;
#X connect 28 2 40 0;
#X connect 34 0 45 0;
#X connect 35 0 6 0;
#X connect 35 1 7 0;
#X connect 35 2 8 0;
#X connect 35 3 25 0;
#X connect 36 0 37 0;
#X connect 36 0 39 0;
#X connect 37 0 0 0;
#X connect 40 0 42 0;
#X connect 42 0 41 0;
#X connect 42 0 43 0;
#X connect 43 0 34 0;
#X connect 43 1 47 0;
#X connect 44 0 25 0;
#X connect 45 0 4 1;
#X connect 46 0 4 1;
#X connect 47 0 46 0;
#X connect 48 0 50 0;
#X connect 49 0 22 0;
#X connect 50 0 52 0;
#X connect 51 0 50 1;
#X connect 52 0 53 0;
#X connect 52 1 54 0;
#X connect 53 0 49 0;
#X connect 55 0 56 0;
#X connect 56 0 51 0;
#X connect 57 0 51 0;
#X connect 58 0 57 0;
#X connect 59 0 4 1;
#X restore 42 51 pd seq4;
#X floatatom 436 -90 5 0 0 0 - - -;
#X floatatom 495 -100 5 0 0 0 - - -;
#X floatatom 585 -105 5 0 0 0 Zones - -;
#X floatatom 670 -108 5 0 0 0 - - -;
#X obj 458 198 tgl 30 0 empty empty empty 17 7 0 15 -262144 -1 -1 0
1;
#X msg 459 15 0;
#X msg 425 15 1;
#X obj 414 -329 hsl 128 30 0 1 0 0 empty empty empty -2 -8 0 10 -261234
-1 -1 12700 1;
#X floatatom 438 -286 5 0 0 0 - - -;
#X obj 458 249 send seq1;
#X obj 588 246 send seq2;
#X obj 889 245 send seq4;
#X obj 550 -13 route 1 0;
#X obj 426 -12 sel 1 0;
#X obj 374 78 int;
#X obj 424 45 + 1;
#X floatatom 373 112 5 0 0 0 - - -;
#X obj 373 47 bng 15 250 50 0 empty empty empty 17 7 0 10 -262144 -1
-1;
#X obj 372 141 route 1;
#X obj 588 197 tgl 30 0 empty empty empty 17 7 0 10 -262144 -1 -1 0
1;
#X msg 590 22 0;
#X msg 549 23 1;
#X obj 514 104 int;
#X obj 560 103 + 1;
#X floatatom 514 136 5 0 0 0 - - -;
#X obj 533 67 bng 15 250 50 0 empty empty empty 17 7 0 10 -262144 -1
-1;
#X obj 513 163 route 1;
#X obj 963 -186 loadbang;
#X obj 963 -163 delay 300;
#X obj 963 -134 s initbang;
#X obj 1068 -207 r initbang;
#X msg 1068 -185 \; pd dsp 1;
#X obj 684 -11 route 1 0;
#X obj 722 202 tgl 30 0 empty empty empty 17 7 0 10 -262144 -1 -1 0
1;
#X msg 721 22 0;
#X msg 678 24 1;
#X obj 646 96 int;
#X obj 685 96 + 1;
#X floatatom 646 123 5 0 0 0 - - -;
#X obj 647 59 bng 15 250 50 0 empty empty empty 17 7 0 10 -262144 -1
-1;
#X obj 645 151 route 1;
#X obj 722 246 send seq3;
#X obj 438 -366 r start;
#X obj 889 196 tgl 30 0 empty empty empty 17 7 0 10 -262144 -1 -1 0
1;
#X msg 896 30 0;
#X msg 857 32 1;
#X obj 858 -10 sel 1 0;
#X obj 806 95 int;
#X obj 856 62 + 1;
#X floatatom 805 129 5 0 0 0 - - -;
#X obj 805 64 bng 15 250 50 0 empty empty empty 17 7 0 10 -262144 -1
-1;
#X obj 804 158 route 1;
#X text 702 -163 here - I'm making sure metro is not triggered again
after zone change, f 23;
#N canvas 423 373 1564 1050 sampler1 0;
#X obj 82 159 soundfiler;
#X obj 196 71 openpanel;
#X obj 195 46 bng 15 250 50 0 empty empty empty 17 7 0 10 -262144 -1
-1;
#X floatatom 119 181 10 0 0 0 - - -;
#X obj 119 206 s SampleSize;
#X floatatom 144 258 5 0 0 0 - - -;
#X obj 83 315 phasor~;
#X obj 83 361 *~;
#X obj 116 344 r SampleSize;
#X obj 427 409 snapshot~;
#X obj 427 359 tgl 15 0 empty empty empty 17 7 0 10 -262144 -1 -1 1
1;
#X obj 427 333 loadbang;
#X floatatom 310 208 5 0 0 0 - - -;
#X obj 313 185 hsl 128 15 -1 1 0 0 empty empty empty -2 -8 0 10 -262144
-1 -1 10160 1;
#X obj 587 470 hsl 199 15 0 1 0 0 empty empty empty -2 -8 0 10 -262144
-1 -1 0 1;
#X floatatom 428 435 10 0 0 0 - - -;
#X obj 428 461 /;
#X obj 496 436 r SampleSize;
#X floatatom 428 485 5 0 0 0 - - -;
#X obj 168 489 vsl 30 50 0 1 0 0 empty empty Volume(dB) -2 -9 0 10
-262144 -1 -1 4410 1;
#N canvas 0 22 450 278 (subpatch) 0;
#X array Sampler 893995 float 2;
#X coords 0 1 893995 -1 200 140 1 0 0;
#X restore 585 319 graph;
#X msg 172 290 0;
#X obj 310 117 bng 30 250 50 0 empty empty empty 17 7 0 10 -262144
-1 -1;
#X msg 51 295 0;
#X obj 25 232 t b b;
#X floatatom 310 156 5 0 0 0 - - -;
#X obj 25 187 bng 30 250 50 0 empty empty Stop 5 -11 0 10 -262144 -1
-1;
#X obj 83 403 tabread4~ Sampler;
#X msg 196 93 read -resize \$1 Sampler;
#X obj 168 579 line;
#X obj 168 552 pack f 30 1;
#X floatatom 483 150 10 0 0 0 - - -;
#X obj 483 48 hsl 199 15 0 1 0 0 empty empty empty -2 -8 0 10 -262144
-1 -1 15840 1;
#X floatatom 482 103 10 0 0 0 - - -;
#X obj 481 79 expr $f1-0.5 \;;
#X obj 482 125 * 2;
#X obj 480 9 r speed;
#X obj 22 73 pack s \$0;
#X msg 22 103 read -resize \$1 Sampler;
#X obj 426 383 metro 20;
#X obj 268 437 r initbang;
#X msg 268 469 0.9;
#X text 308 290 Change slices' time once you swap the file;
#X msg 822 361 ../home/alarm/audio/Kick.wav;
#X text 818 336 path on Nebulae;
#X obj 23 42 r file1;
#X obj 332 471 r size;
#X obj 351 209 r reseter;
#X obj 83 232 expr 48000 / $f1;
#N canvas 613 587 1185 477 fileselector 0;
#X obj 145 116 float;
#X obj 145 70 bng 15 250 50 0 empty empty empty 17 7 0 10 -262144 -1
-1;
#X obj 205 114 + 1;
#X obj 98 196 bng 15 250 50 0 empty empty empty 17 7 0 10 -262144 -1
-1;
#X obj 167 194 bng 15 250 50 0 empty empty empty 17 7 0 10 -262144
-1 -1;
#X obj 243 193 bng 15 250 50 0 empty empty empty 17 7 0 10 -262144
-1 -1;
#X msg 262 83 0;
#X floatatom 97 137 5 0 0 0 - - -;
#X obj 166 392 s file1;
#X obj 145 11 r file;
#X obj 145 41 change;
#X obj 313 203 bng 15 250 50 0 empty empty empty 17 7 0 10 -262144
-1 -1;
#X obj 373 201 bng 15 250 50 0 empty empty empty 17 7 0 10 -262144
-1 -1;
#X text 446 32 ../home/alarm/audio/Kick.wav;
#X msg 7 293 ../home/alarm/audio/Kick.wav;
#X msg 111 253 ../home/alarm/audio/Stabs.wav;
#X msg 279 315 ../home/alarm/audio/Atmos.wav;
#X msg 382 254 ../home/alarm/audio/Piano1.wav;
#X msg 551 203 ../home/alarm/audio/Piano2.wav;
#X obj 145 152 route 0 1 2 3 4 5;
#X obj 362 148 bng 15 250 50 0 empty empty empty 17 7 0 10 -262144
-1 -1;
#X msg 466 155 ../home/alarm/audio/SnareCrickets.wav;
#X obj 56 73 r sam15;
#X obj 416 73 r sam11;
#X obj 486 72 r sam12;
#X obj 562 71 r sam5;
#X obj 625 78 r sam6;
#X connect 0 0 2 0;
#X connect 0 0 7 0;
#X connect 0 0 19 0;
#X connect 1 0 0 0;
#X connect 2 0 0 1;
#X connect 3 0 14 0;
#X connect 4 0 15 0;
#X connect 5 0 16 0;
#X connect 6 0 0 1;
#X connect 9 0 10 0;
#X connect 10 0 1 0;
#X connect 11 0 17 0;
#X connect 12 0 18 0;
#X connect 14 0 8 0;
#X connect 15 0 8 0;
#X connect 16 0 8 0;
#X connect 17 0 8 0;
#X connect 18 0 8 0;
#X connect 19 0 3 0;
#X connect 19 1 4 0;
#X connect 19 2 5 0;
#X connect 19 3 11 0;
#X connect 19 4 12 0;
#X connect 19 5 20 0;
#X connect 20 0 21 0;
#X connect 20 0 6 0;
#X connect 21 0 8 0;
#X connect 22 0 3 0;
#X connect 23 0 4 0;
#X connect 24 0 5 0;
#X connect 25 0 11 0;
#X connect 26 0 20 0;
#X restore 321 49 pd fileselector;
#N canvas 299 350 1252 539 slicer 0;
#X msg 217 152 0.75;
#X msg 314 155 0.25;
#X obj 50 285 outlet;
#X obj 28 52 bng 30 250 50 0 empty empty empty 17 7 0 10 -262144 -1
-1;
#X obj 89 475 s volume;
#X obj 191 84 bng 30 250 50 0 empty empty empty 17 7 0 10 -262144 -1
-1;
#X text 222 319 Envelopes/Ramps up and down made to avoid clicks,
f 27;
#X obj 316 86 bng 30 250 50 0 empty empty empty 17 7 0 10 -262144 -1
-1;
#X msg 217 289 0.9 0.2;
#X msg 633 165 read -resize Kick.wav Sampler;
#X msg 722 313 read -resize Atmos.wav Sampler;
#X obj 594 68 bng 30 250 50 0 empty empty empty 17 7 0 10 -262144 -1
-1;
#X obj 704 192 bng 30 250 50 0 empty empty empty 17 7 0 10 -262144
-1 -1;
#X msg 614 347 0 0.1;
#X obj 711 246 delay 1 96 samp;
#X msg 650 438 0.9 0.2;
#X obj 649 403 delay 1 480 samp;
#X obj 631 101 delay 1 96 samp;
#X obj 632 125 bng 30 250 50 0 empty empty empty 17 7 0 10 -262144
-1 -1;
#X obj 662 243 bng 30 250 50 0 empty empty empty 17 7 0 10 -262144
-1 -1;
#X msg 576 257 0;
#X text 636 73 file change in case its needed;
#X obj 31 18 r slice1;
#X obj 206 35 r slice3;
#X obj 316 36 r slice2;
#X msg 96 165 0;
#X msg 118 290 0 0.2;
#X obj -18 134 delay 0.3;
#X obj 217 124 delay 2;
#X obj 218 260 delay 0.4;
#X obj 335 128 delay 2;
#X obj -18 185 random 100;
#X obj -18 208 expr $f1*0.01 \;;
#X floatatom -17 234 10 0 0 0 - - -;
#X connect 0 0 2 0;
#X connect 0 0 29 0;
#X connect 1 0 2 0;
#X connect 1 0 29 0;
#X connect 3 0 26 0;
#X connect 3 0 27 0;
#X connect 5 0 26 0;
#X connect 5 0 28 0;
#X connect 7 0 26 0;
#X connect 7 0 30 0;
#X connect 8 0 4 0;
#X connect 9 0 19 0;
#X connect 11 0 13 0;
#X connect 11 0 17 0;
#X connect 11 0 20 0;
#X connect 12 0 13 0;
#X connect 12 0 14 0;
#X connect 12 0 16 0;
#X connect 12 0 20 0;
#X connect 13 0 4 0;
#X connect 14 0 10 0;
#X connect 15 0 4 0;
#X connect 16 0 15 0;
#X connect 17 0 18 0;
#X connect 18 0 9 0;
#X connect 19 0 16 0;
#X connect 20 0 2 0;
#X connect 22 0 3 0;
#X connect 23 0 5 0;
#X connect 24 0 7 0;
#X connect 25 0 29 0;
#X connect 26 0 4 0;
#X connect 27 0 25 0;
#X connect 27 0 31 0;
#X connect 28 0 0 0;
#X connect 29 0 8 0;
#X connect 30 0 1 0;
#X connect 31 0 32 0;
#X connect 32 0 33 0;
#X connect 33 0 2 0;
#X restore 569 229 pd slicer;
#X obj 86 632 *~;
#X obj 82 865 dac~ 1 2;
#X floatatom 235 579 0 0 120 0 - - -;
#X text 253 562 level \, dB;
#X floatatom 271 622 0 0 100 0 - - -;
#X text 273 584 liveness \, 0-100;
#X floatatom 305 625 8 0 5000 0 - - -;
#X floatatom 340 648 0 0 100 0 - - -;
#X text 376 650 HF damping \, percent;
#X obj 151 773 bob~;
#X obj 280 793 bob~;
#X floatatom 751 724 5 0 0 0 - - -;
#X obj 781 665 hsl 199 15 0 5000 0 0 empty empty empty -2 -8 0 10 -204800
-1 -1 0 1;
#X obj 687 234 random 100;
#X obj 569 258 bng 30 250 50 0 empty empty empty 17 7 0 10 -262144
-1 -1;
#X floatatom 701 287 10 0 0 0 - - -;
#X text 381 626 crossover frequency \, Hz.;
#X text 380 540 118 88 2895 52 - 5000;
#X text 678 212 first step/slice1 is a random slice;
#X obj 392 603 hsl 199 15 0 5000 0 0 empty empty empty -2 -8 0 10 -262144
-1 -1 0 1;
#X obj 794 600 r blend_alt;
#X obj 796 630 * 5000;
#X obj 781 544 r initbang;
#X msg 780 569 0;
#X msg 254 346 0.9;
#X obj 256 318 r slice4;
#X obj 312 346 bng 15 250 50 0 empty empty empty 17 7 0 10 -262144
-1 -1;
#X obj 766 82 r slice5;
#X obj 831 82 r slice6;
#X obj 899 82 r slice7;
#X obj 966 82 r slice8;
#X msg 967 117 0.8;
#X msg 899 116 0.6;
#X msg 765 118 0.1;
#X msg 830 117 0.4;
#X obj 694 262 expr $f1*0.001 \;;
#X obj 796 112 bng 15 250 50 0 empty empty empty 17 7 0 10 -262144
-1 -1;
#X obj 862 106 bng 15 250 50 0 empty empty empty 17 7 0 10 -262144
-1 -1;
#X obj 935 111 bng 15 250 50 0 empty empty empty 17 7 0 10 -262144
-1 -1;
#X obj 999 110 bng 15 250 50 0 empty empty empty 17 7 0 10 -262144
-1 -1;
#X text 763 50 additional unsequenced slices accessible via ataching
a midi controller patched in slicer 2;
#X text 900 623 reverb control;
#X text 807 470 sample possition;
#X text 553 16 speed / pitch of sample;
#X obj 208 690 rev3~ 100 88 3000 20;
#X connect 0 0 3 0;
#X connect 0 0 48 0;
#X connect 1 0 28 0;
#X connect 2 0 1 0;
#X connect 3 0 4 0;
#X connect 5 0 25 0;
#X connect 6 0 7 0;
#X connect 7 0 9 0;
#X connect 7 0 27 0;
#X connect 8 0 7 1;
#X connect 9 0 15 0;
#X connect 10 0 39 0;
#X connect 11 0 10 0;
#X connect 12 0 6 0;
#X connect 13 0 12 0;
#X connect 15 0 16 0;
#X connect 16 0 18 0;
#X connect 17 0 16 1;
#X connect 18 0 14 0;
#X connect 19 0 30 0;
#X connect 21 0 6 1;
#X connect 22 0 25 0;
#X connect 23 0 6 0;
#X connect 24 0 21 0;
#X connect 24 1 23 0;
#X connect 25 0 13 0;
#X connect 26 0 24 0;
#X connect 27 0 51 0;
#X connect 28 0 0 0;
#X connect 29 0 51 1;
#X connect 30 0 29 0;
#X connect 31 0 13 0;
#X connect 32 0 34 0;
#X connect 33 0 35 0;
#X connect 34 0 33 0;
#X connect 35 0 31 0;
#X connect 36 0 32 0;
#X connect 37 0 38 0;
#X connect 38 0 0 0;
#X connect 39 0 9 0;
#X connect 40 0 41 0;
#X connect 41 0 19 0;
#X connect 45 0 37 0;
#X connect 46 0 19 0;
#X connect 47 0 21 0;
#X connect 48 0 5 0;
#X connect 48 0 6 0;
#X connect 50 0 6 1;
#X connect 50 0 65 0;
#X connect 51 0 52 0;
#X connect 51 0 95 0;
#X connect 53 0 95 2;
#X connect 55 0 95 3;
#X connect 57 0 95 4;
#X connect 58 0 95 5;
#X connect 60 0 52 0;
#X connect 61 0 52 1;
#X connect 62 0 60 1;
#X connect 62 0 61 1;
#X connect 63 0 62 0;
#X connect 64 0 86 0;
#X connect 65 0 64 0;
#X connect 70 0 57 0;
#X connect 71 0 72 0;
#X connect 72 0 63 0;
#X connect 73 0 74 0;
#X connect 74 0 63 0;
#X connect 75 0 6 1;
#X connect 76 0 75 0;
#X connect 76 0 77 0;
#X connect 78 0 84 0;
#X connect 78 0 87 0;
#X connect 79 0 85 0;
#X connect 79 0 88 0;
#X connect 80 0 83 0;
#X connect 80 0 89 0;
#X connect 81 0 82 0;
#X connect 81 0 90 0;
#X connect 86 0 66 0;
#X connect 95 0 60 0;
#X connect 95 1 61 0;
#X restore 147 67 pd sampler1;
#N canvas 1010 350 1250 839 sampler2 0;
#X obj 82 159 soundfiler;
#X obj 242 76 openpanel;
#X obj 242 51 bng 15 250 50 0 empty empty empty 17 7 0 10 -262144 -1
-1;
#X floatatom 119 181 10 0 0 0 - - -;
#X floatatom 144 258 5 0 0 0 - - -;
#X obj 86 341 phasor~;
#X obj 86 387 *~;
#X obj 441 386 snapshot~;
#X obj 439 329 tgl 15 0 empty empty empty 17 7 0 10 -262144 -1 -1 1
1;
#X obj 438 298 loadbang;
#X floatatom 419 216 5 0 0 0 - - -;
#X obj 422 193 hsl 128 15 -1 1 0 0 empty empty empty -2 -8 0 10 -262144
-1 -1 6350 1;
#X obj 611 445 hsl 199 15 0 1 0 0 empty empty empty -2 -8 0 10 -262144
-1 -1 0 1;
#X floatatom 442 412 10 0 0 0 - - -;
#X obj 442 438 /;
#X floatatom 442 462 5 0 0 0 - - -;
#X obj 133 524 vsl 30 50 0 1 0 1 empty empty Volume(dB) -2 -9 0 10
-262144 -1 -1 4410 1;
#N canvas 0 22 450 278 (subpatch) 0;
#X array Sampler2 387751 float 2;
#X coords 0 1 387751 -1 200 140 1 0 0;
#X restore 611 300 graph;
#X msg 180 310 0, f 2;
#X msg 308 319 0.75;
#X obj 419 125 bng 30 250 50 0 empty empty empty 17 7 0 10 -262144
-1 -1;
#X msg 51 295 0;
#X obj 25 232 t b b;
#X floatatom 419 164 5 0 0 0 - - -;
#X obj 25 187 bng 30 250 50 0 empty empty Stop 5 -11 0 10 -262144 -1
-1;
#X obj 81 631 *~;
#X obj 134 612 line;
#X obj 134 585 pack f 30 1;
#X floatatom 483 150 10 0 0 0 - - -;
#X obj 484 48 hsl 199 15 0 1 0 0 empty empty empty -2 -8 0 10 -262144
-1 -1 11100 1;
#X floatatom 482 103 10 0 0 0 - - -;
#X obj 481 79 expr $f1-0.5 \;;
#X obj 482 125 * 2;
#X obj 22 79 pack s \$0;
#X obj 440 360 metro 20;
#X obj 223 464 r initbang;
#X msg 225 490 0.9;
#X msg 22 103 read -resize \$1 Sampler2;
#X obj 86 429 tabread4~ Sampler2;
#X msg 241 101 read -resize \$1 Sampler2;
#X obj 119 206 s SampleSize2;
#X obj 119 370 r SampleSize2;
#X obj 510 413 r SampleSize2;
#X obj 609 245 r slice1;
#X obj 737 249 r slice3;
#X obj 676 247 r slice2;
#X obj 480 9 r pitch;
#X obj 22 32 r file2;
#X obj 294 493 r overlap;
#X obj 800 250 r slice4;
#X obj 221 250 r reseter;
#X obj 83 232 expr 48000 / $f1;
#N canvas 432 696 989 544 fileselector2 0;
#X obj 135 165 float;
#X obj 134 119 bng 15 250 50 0 empty empty empty 17 7 0 10 -262144
-1 -1;
#X obj 195 163 + 1;
#X obj 88 245 bng 15 250 50 0 empty empty empty 17 7 0 10 -262144 -1
-1;
#X obj 157 243 bng 15 250 50 0 empty empty empty 17 7 0 10 -262144
-1 -1;
#X obj 233 242 bng 15 250 50 0 empty empty empty 17 7 0 10 -262144
-1 -1;
#X msg 252 132 0;
#X floatatom 87 186 5 0 0 0 - - -;
#X obj 135 90 change;
#X obj 303 252 bng 15 250 50 0 empty empty empty 17 7 0 10 -262144
-1 -1;
#X obj 363 250 bng 15 250 50 0 empty empty empty 17 7 0 10 -262144
-1 -1;
#X obj 156 441 s file2;
#X obj 135 60 r file_alt;
#X msg 4 344 ../home/alarm/audio/Kick.wav;
#X msg 108 293 ../home/alarm/audio/Stabs.wav;
#X msg 337 386 ../home/alarm/audio/Atmos.wav;
#X msg 408 335 ../home/alarm/audio/Piano1.wav;
#X msg 467 257 ../home/alarm/audio/SnareCrickets.wav;
#X obj 135 201 route 0 1 2 3 4 5;
#X obj 292 209 bng 15 250 50 0 empty empty empty 17 7 0 10 -262144
-1 -1;
#X msg 470 211 ../home/alarm/audio/Piano2.wav;
#X obj 330 75 r sam17;
#X obj 467 69 r sam18;
#X obj 530 85 r sam19;
#X obj 532 136 r sam20;
#X obj 634 142 r sam16;
#X connect 0 0 2 0;
#X connect 0 0 7 0;
#X connect 0 0 18 0;
#X connect 1 0 0 0;
#X connect 2 0 0 1;
#X connect 3 0 13 0;
#X connect 4 0 14 0;
#X connect 5 0 15 0;
#X connect 6 0 0 1;
#X connect 8 0 1 0;
#X connect 9 0 16 0;
#X connect 10 0 17 0;
#X connect 12 0 8 0;
#X connect 13 0 11 0;
#X connect 14 0 11 0;
#X connect 15 0 11 0;
#X connect 16 0 11 0;
#X connect 17 0 11 0;
#X connect 18 0 3 0;
#X connect 18 1 4 0;
#X connect 18 2 5 0;
#X connect 18 3 9 0;
#X connect 18 4 10 0;
#X connect 18 5 19 0;
#X connect 19 0 20 0;
#X connect 19 0 6 0;
#X connect 20 0 11 0;
#X connect 21 0 5 0;
#X connect 22 0 19 0;
#X connect 23 0 4 0;
#X connect 24 0 3 0;
#X connect 25 0 9 0;
#X coords 0 544 1 543 85 60 0;
#X restore 735 36 pd fileselector2;
#X floatatom 627 555 0 0 100 0 - - -;
#X floatatom 661 558 8 0 5000 0 - - -;
#X floatatom 696 581 0 0 100 0 - - -;
#X text 732 583 HF damping \, percent;
#X obj 170 742 bob~;
#X obj 273 744 bob~;
#X floatatom 626 690 5 0 0 0 - - -;
#X obj 802 673 hsl 199 15 0 5000 0 0 empty empty empty -2 -8 0 10 -204800
-1 -1 0 1;
#X obj 639 497 hsl 199 15 0 5000 0 0 empty empty empty -2 -8 0 10 -262144
-1 -1 0 1;
#X obj 872 635 * 5000;
#X obj 904 521 r initbang;
#X msg 907 549 0;
#X obj 881 602 r window_alt;
#X floatatom 579 553 0 0 100 0 - - -;
#N canvas 594 620 450 368 processIN 0;
#X obj 126 93 vsl 30 50 0 1 0 1 empty empty Volume(dB) -2 -9 0 10 -262144
-1 -1 0 1;
#X obj 132 216 *~;
#X obj 125 183 line;
#X obj 125 156 pack f 30 1;
#X obj 77 32 r initbang;
#X obj 16 110 receive~ inputA;
#X obj 133 254 outlet~;
#X obj 205 28 r size_alt;
#X msg 79 57 0;
#X text 185 97 Here is input L patched thru reverb. Fade it in via
size_alt and window_alt;
#X connect 0 0 3 0;
#X connect 1 0 6 0;
#X connect 2 0 1 1;
#X connect 3 0 2 0;
#X connect 4 0 8 0;
#X connect 5 0 1 0;
#X connect 7 0 0 0;
#X connect 8 0 0 0;
#X restore 230 603 pd processIN;
#X obj 73 799 dac~ 1 2;
#X msg 267 317 0.5;
#X msg 221 312 0.25;
#X text 748 214 0 0.25 0.75 are % of the file size to have tight slices
of samples you can prepare the file accordingly.;
#X text 738 554 crossover frequency \, Hz.;
#X text 875 40 Here are file destinations and selector;
#X obj 258 342 bng 20 250 50 0 empty empty empty 17 7 0 10 -262144
-1 -1;
#X obj 292 343 bng 20 250 50 0 empty empty empty 17 7 0 10 -262144
-1 -1;
#X obj 221 341 bng 20 250 50 0 empty empty empty 17 7 0 10 -262144
-1 -1;
#X obj 180 342 bng 20 250 50 0 empty empty empty 17 7 0 10 -262144
-1 -1;
#X obj 716 115 r slice5;
#X obj 782 113 r slice6;
#X obj 851 116 r slice7;
#X obj 921 116 r slice8;
#X msg 919 164 0.8;
#X msg 851 168 0.6;
#X msg 717 165 0.1;
#X msg 783 165 0.4;
#X text 830 87 additional unsequenced slices accessible via midi controller
;
#X obj 861 139 bng 20 250 50 0 empty empty empty 17 7 0 10 -262144
-1 -1;
#X obj 932 139 bng 20 250 50 0 empty empty empty 17 7 0 10 -262144
-1 -1;
#X obj 793 139 bng 20 250 50 0 empty empty empty 17 7 0 10 -262144
-1 -1;
#X obj 728 138 bng 20 250 50 0 empty empty empty 17 7 0 10 -262144
-1 -1;
#X obj 863 252 r slice1b;
#X text 952 634 reverb control;
#X text 829 447 sample possition;
#X text 540 20 speed / pitch of sample;
#X text 235 560 Here is input L patched thru reverb. Fade it in via
size_alt and window_alt;
#X obj 169 686 rev3~ 100 90 2800 25;
#X connect 0 0 3 0;
#X connect 0 0 51 0;
#X connect 1 0 39 0;
#X connect 2 0 1 0;
#X connect 3 0 40 0;
#X connect 4 0 23 0;
#X connect 5 0 6 0;
#X connect 6 0 7 0;
#X connect 6 0 38 0;
#X connect 7 0 13 0;
#X connect 8 0 34 0;
#X connect 9 0 8 0;
#X connect 10 0 5 0;
#X connect 11 0 10 0;
#X connect 13 0 14 0;
#X connect 14 0 15 0;
#X connect 15 0 12 0;
#X connect 16 0 27 0;
#X connect 18 0 5 1;
#X connect 18 0 77 0;
#X connect 19 0 5 1;
#X connect 19 0 75 0;
#X connect 20 0 23 0;
#X connect 21 0 5 0;
#X connect 22 0 18 0;
#X connect 22 1 21 0;
#X connect 23 0 11 0;
#X connect 24 0 22 0;
#X connect 25 0 68 1;
#X connect 25 0 96 0;
#X connect 26 0 25 1;
#X connect 27 0 26 0;
#X connect 28 0 11 0;
#X connect 29 0 31 0;
#X connect 30 0 32 0;
#X connect 31 0 30 0;
#X connect 32 0 28 0;
#X connect 33 0 37 0;
#X connect 34 0 7 0;
#X connect 35 0 36 0;
#X connect 36 0 16 0;
#X connect 37 0 0 0;
#X connect 38 0 25 0;
#X connect 39 0 0 0;
#X connect 41 0 6 1;
#X connect 42 0 14 1;
#X connect 43 0 18 0;
#X connect 44 0 69 0;
#X connect 45 0 70 0;
#X connect 46 0 29 0;
#X connect 47 0 33 0;
#X connect 48 0 16 0;
#X connect 49 0 19 0;
#X connect 50 0 18 0;
#X connect 51 0 4 0;
#X connect 51 0 5 0;
#X connect 53 0 96 3;
#X connect 54 0 96 4;
#X connect 55 0 96 5;
#X connect 57 0 68 0;
#X connect 58 0 68 1;
#X connect 59 0 57 1;
#X connect 59 0 58 1;
#X connect 60 0 59 0;
#X connect 61 0 54 0;
#X connect 62 0 60 0;
#X connect 63 0 64 0;
#X connect 64 0 60 0;
#X connect 65 0 62 0;
#X connect 66 0 96 1;
#X connect 67 0 96 0;
#X connect 69 0 5 1;
#X connect 69 0 74 0;
#X connect 70 0 5 1;
#X connect 70 0 76 0;
#X connect 78 0 84 0;
#X connect 78 0 90 0;
#X connect 79 0 85 0;
#X connect 79 0 89 0;
#X connect 80 0 83 0;
#X connect 80 0 87 0;
#X connect 81 0 82 0;
#X connect 81 0 88 0;
#X connect 82 0 5 1;
#X connect 83 0 5 1;
#X connect 84 0 5 1;
#X connect 85 0 5 1;
#X connect 91 0 18 0;
#X connect 96 0 57 0;
#X connect 96 1 58 0;
#X restore 229 68 pd sampler2;
#X obj 600 -315 hsl 128 15 0 1 0 0 empty empty empty -2 -8 0 10 -261234
-1 -1 0 1;
#X obj 596 -286 s density;
#X obj 438 -188 expr $f1<=0.25 \; $f1> 0.25 && $f1<=0.5 \; $f1>0.5
&& $f1<=0.75 \; $f1>0.75 && $f1<0.9 \; $f1>=0.9, f 29;
#X text 631 -214 Select sequence/algorithm 1-4 we have 5 zones here
\, 5th one lets the file loop without slicing, f 31;
#X floatatom 819 -112 5 0 0 0 - - -;
#X text 37 -75 Sequencers/Algorithms:, f 11;
#X text 147 42 Samplers:, f 11;
#X obj 919 -392 hsl 128 15 0 1 0 0 empty empty empty -2 -8 0 10 -262130
-1 -1 10160 1;
#X obj 916 -359 s pitch;
#X text 919 -393 Speed of Sampler 2;
#X text 208 -381 Speed of Sampler 1;
#X text 594 -264 Density of events;
#X text 444 -264 Zone selector;
#X obj 137 -355 bng 30 250 50 0 empty empty empty 17 7 0 10 -204786
-1 -1;
#X obj 137 -320 s file;
#X obj 817 -357 bng 30 250 50 0 empty empty empty 17 7 0 10 -262130
-1 -1;
#X obj 817 -315 s file_alt;
#X obj 920 -327 hsl 128 20 0 1 0 0 empty empty empty -2 -8 0 10 -262130
-1 -1 0 1;
#X obj 206 -321 hsl 128 20 0 1 0 0 empty empty empty -2 -8 0 10 -204786
-1 -1 0 1;
#X obj 203 -289 s size;
#X text 927 -324 Volume of Sampler 2;
#X text 213 -318 Volume of Sampler 1;
#X obj 916 -293 s overlap;
#X obj 598 -338 s reseter;
#X obj 872 -97 tgl 30 0 empty empty empty 17 7 0 10 -262144 -1 -1 1
1;
#N canvas 575 712 651 330 reset 0;
#X obj 301 43 r reset;
#X obj 300 194 send reseter;
#X text 391 191 resets with bang in PD;
#X text 360 74 reset in audio format from modular;
#X obj 301 70 change;
#X obj 301 101 sel 1;
#X connect 0 0 4 0;
#X connect 4 0 5 0;
#X connect 5 0 1 0;
#X restore 148 -31 pd reset;
#N canvas 571 144 930 837 seq1 1;
#X obj 251 408 float;
#X obj 251 324 bng 15 250 50 0 empty empty empty 17 7 0 10 -262144
-1 -1;
#X obj 353 415 + 1, f 6;
#X msg 461 482 0;
#X obj 251 297 metro 500;
#X obj 238 222 tgl 15 0 empty empty empty 17 7 0 10 -262144 -1 -1 0
1;
#X obj 220 498 bng 15 250 50 0 empty empty empty 17 7 0 10 -262144
-1 -1;
#X obj 279 498 bng 15 250 50 0 empty empty empty 17 7 0 10 -262144
-1 -1;
#X obj 350 493 bng 15 250 50 0 empty empty empty 17 7 0 10 -262144
-1 -1;
#X floatatom 336 233 5 0 0 0 - - -;
#X obj 340 84 hsl 128 15 0 1 0 0 empty empty empty -2 -8 0 10 -204800
-1 -1 0 1;
#X obj 238 162 r seq1;
#X obj 124 528 noise~;
#X obj 191 563 snapshot~;
#X floatatom 191 589 5 0 0 0 - - -;
#X obj 191 614 >= 0;
#X obj 190 640 route 1 0;
#X obj 188 690 bng 15 250 50 0 empty empty empty 17 7 0 10 -262144
-1 -1;
#X obj 235 691 bng 15 250 50 0 empty empty empty 17 7 0 10 -262144
-1 -1;
#X obj 244 448 route 0 1;
#X floatatom 335 278 5 0 0 0 - - -;
#X obj 336 212 * 300;
#X obj 335 254 + 10;
#X obj 380 547 s slice1;
#X obj 248 740 s slice2;
#X obj 281 563 s slice3;
#X obj 187 739 s slice1;
#X obj 337 42 r density;
#X obj 480 457 r reseter;
#X obj 584 386 bng 15 250 50 0 empty empty empty 17 7 0 10 -262144
-1 -1;
#N canvas 411 424 450 300 ClocksProbability 0;
#X obj 167 174 >= 0;
#X obj 192 70 hsl 128 15 0 1 0 0 empty empty empty -2 -8 0 10 -262144
-1 -1 0 1;
#X floatatom 189 151 5 0 0 0 - - -;
#X obj 29 108 noise~;
#X obj 101 144 snapshot~;
#X floatatom 101 176 5 0 0 0 - - -;
#X obj 167 225 bng 15 250 50 0 empty empty empty 17 7 0 10 -262144
-1 -1;
#X obj 227 105 * 2;
#X obj 227 128 - 1;
#X floatatom 188 107 5 0 0 0 - - -;
#X obj 188 25 r blend;
#X obj 167 198 route 1 0, f 13;
#X obj 248 227 bng 15 250 50 0 empty empty empty 17 7 0 10 -262144
-1 -1;
#X text 120 52 100%;
#X text 350 51 0%;
#X obj 99 77 inlet;
#X obj 167 258 outlet;
#X connect 0 0 11 0;
#X connect 1 0 7 0;
#X connect 1 0 9 0;
#X connect 2 0 0 1;
#X connect 3 0 4 0;
#X connect 4 0 5 0;
#X connect 4 0 0 0;
#X connect 6 0 16 0;
#X connect 7 0 8 0;
#X connect 8 0 2 0;
#X connect 10 0 1 0;
#X connect 11 0 6 0;
#X connect 11 1 12 0;
#X connect 15 0 4 0;
#X restore 251 363 pd ClocksProbability;
#X text 382 363 Probability of clocks;
#N canvas 892 147 433 343 Repeatter 0;
#X obj 171 181 >= 0;
#X obj 196 66 hsl 128 15 0 1 0 0 empty empty empty -2 -8 0 10 -262144
-1 -1 0 1;
#X floatatom 193 158 5 0 0 0 - - -;
#X obj 98 109 noise~;
#X obj 105 151 snapshot~;
#X floatatom 105 183 5 0 0 0 - - -;
#X obj 171 233 bng 15 250 50 0 empty empty empty 17 7 0 10 -262144
-1 -1;
#X obj 231 112 * 2;
#X floatatom 192 114 5 0 0 0 - - -;
#X obj 171 206 route 1 0;
#X obj 214 234 bng 15 250 50 0 empty empty empty 17 7 0 10 -262144
-1 -1;
#X obj 192 32 r window;
#X obj 231 135 - 0.8;
#X text 18 71 clocks from metro from each algorithm, f 20;
#X text 282 97 another probability utility this time for window used
for adding steps \, repeating them and shiffle, f 23;
#X text 222 174 20-80% scaled for not so drastic results, f 21;
#X obj 156 265 outlet;
#X obj 224 263 outlet;
#X obj 32 109 r clock1;
#X connect 0 0 9 0;
#X connect 1 0 7 0;
#X connect 1 0 8 0;
#X connect 2 0 0 1;
#X connect 3 0 4 0;
#X connect 4 0 5 0;
#X connect 4 0 0 0;
#X connect 6 0 16 0;
#X connect 7 0 12 0;
#X connect 9 0 6 0;
#X connect 9 1 10 0;
#X connect 10 0 17 0;
#X connect 11 0 1 0;
#X connect 12 0 2 0;
#X connect 18 0 4 0;
#X restore 584 355 pd Repeatter;
#X obj 296 340 s clock1;
#X obj 445 658 float;
#X obj 542 656 + 1, f 6;
#X floatatom 398 691 5 0 0 0 - - -;
#X msg 572 737 0;
#X obj 439 744 bng 15 250 50 0 empty empty empty 17 7 0 10 -262144
-1 -1;
#X obj 468 744 bng 15 250 50 0 empty empty empty 17 7 0 10 -262144
-1 -1;
#X obj 494 744 bng 15 250 50 0 empty empty empty 17 7 0 10 -262144
-1 -1;
#X msg 439 772 1;
#X obj 439 803 s SeedRep;
#X obj 464 231 r SeedRep;
#X floatatom 464 330 5 0 0 0 - - -;
#X obj 464 265 pack;
#X obj 435 256 bng 15 250 50 0 empty empty empty 17 7 0 10 -262144
-1 -1;
#X obj 572 793 s SeedRep2;
#X obj 463 292 route 1 0;
#X obj 513 325 bng 15 250 50 0 empty empty empty 17 7 0 10 -262144
-1 -1;
#X obj 410 290 * 0.5;
#X floatatom 367 297 5 0 0 0 - - -;
#X obj 445 712 route 0 1 2 3 4 5;
#X text 485 620 connect this to experiment with broken rhythms;
#X obj 88 236 r taptempo;
#X obj 348 120 list prepend 0;
#X obj 540 68 tgl 30 0 empty empty empty 17 7 0 10 -261234 -1 -1 0
1;
#X obj 348 149 route 0 1;
#X floatatom 347 181 5 0 0 0 - - -;
#X floatatom 386 181 5 0 0 0 - - -;
#X obj 540 17 r initbang;
#X msg 540 43 0;
#X obj 622 47 change;
#X obj 622 16 r record_alt;
#X text 457 150 taptempo gate - on once record alt is pressed (with
source) it is cutting density off and allowing taptempo to come thru
;
#X text 30 466 If 0 -> trigger snapshot to generate random number like
S&H if >= 0 play slice1 otherwise slice2, f 29;
#X text 515 492 this is basic step sequencer;
#X connect 0 0 2 0;
#X connect 0 0 19 0;
#X connect 1 0 30 0;
#X connect 1 0 33 0;
#X connect 2 0 0 1;
#X connect 3 0 0 1;
#X connect 4 0 1 0;
#X connect 5 0 4 0;
#X connect 6 0 13 0;
#X connect 7 0 25 0;
#X connect 8 0 3 0;
#X connect 8 0 23 0;
#X connect 9 0 22 0;
#X connect 10 0 55 0;
#X connect 11 0 5 0;
#X connect 12 0 13 0;
#X connect 13 0 14 0;
#X connect 14 0 15 0;
#X connect 15 0 16 0;
#X connect 16 0 17 0;
#X connect 16 1 18 0;
#X connect 17 0 26 0;
#X connect 18 0 24 0;
#X connect 19 0 6 0;
#X connect 19 1 7 0;
#X connect 19 2 8 0;
#X connect 20 0 4 1;
#X connect 20 0 50 0;
#X connect 20 0 51 0;
#X connect 21 0 9 0;
#X connect 22 0 20 0;
#X connect 27 0 10 0;
#X connect 28 0 3 0;
#X connect 30 0 0 0;
#X connect 32 0 2 0;
#X connect 32 0 29 0;
#X connect 34 0 35 0;
#X connect 34 0 36 0;
#X connect 34 0 52 0;
#X connect 35 0 34 1;
#X connect 37 0 47 0;
#X connect 37 0 42 0;
#X connect 37 0 34 1;
#X connect 38 0 41 0;
#X connect 41 0 42 0;
#X connect 43 0 45 0;
#X connect 43 0 46 0;
#X connect 44 0 4 1;
#X connect 45 0 48 0;
#X connect 46 0 51 0;
#X connect 48 0 44 0;
#X connect 48 1 49 0;
#X connect 49 0 20 0;
#X connect 50 0 45 1;
#X connect 52 0 38 0;
#X connect 52 1 39 0;
#X connect 52 2 40 0;
#X connect 52 5 37 0;
#X connect 54 0 4 1;
#X connect 55 0 57 0;
#X connect 56 0 55 1;
#X connect 57 0 58 0;
#X connect 57 1 59 0;
#X connect 58 0 21 0;
#X connect 60 0 61 0;
#X connect 61 0 56 0;
#X connect 62 0 56 0;
#X connect 63 0 62 0;
#X restore 40 -32 pd seq1;
#N canvas 335 506 433 300 Repeatter 0;
#X obj 171 181 >= 0;
#X obj 197 72 hsl 128 15 0 1 0 0 empty empty empty -2 -8 0 10 -262144
-1 -1 0 1;
#X floatatom 193 158 5 0 0 0 - - -;
#X obj 98 109 noise~;
#X obj 105 151 snapshot~;
#X floatatom 105 183 5 0 0 0 - - -;
#X obj 171 233 bng 15 250 50 0 empty empty empty 17 7 0 10 -262144
-1 -1;
#X obj 231 112 * 2;
#X floatatom 192 114 5 0 0 0 - - -;
#X obj 171 206 route 1 0;
#X obj 214 234 bng 15 250 50 0 empty empty empty 17 7 0 10 -262144
-1 -1;
#X obj 192 32 r window;
#X obj 231 135 - 0.8;
#X obj 156 264 s repeat;
#X obj 224 264 s repeat2;
#X obj 32 109 r clocks;
#X text 18 71 clocks from metro from each algorithm, f 20;
#X text 282 97 another probability utility this time for window used
for adding steps \, repeating them and shiffle, f 23;
#X text 222 174 20-80% scaled for not so drastic results, f 21;
#X connect 0 0 9 0;
#X connect 1 0 7 0;
#X connect 1 0 8 0;
#X connect 2 0 0 1;
#X connect 3 0 4 0;
#X connect 4 0 5 0;
#X connect 4 0 0 0;
#X connect 6 0 13 0;
#X connect 7 0 12 0;
#X connect 9 0 6 0;
#X connect 9 1 10 0;
#X connect 10 0 14 0;
#X connect 11 0 1 0;
#X connect 12 0 2 0;
#X connect 15 0 4 0;
#X restore 198 -148 pd Repeatter;
#X obj 143 -183 hsl 128 15 0 1 0 0 empty empty empty -2 -8 0 10 -261234
-1 -1 0 1;
#X obj 138 -148 s window;
#X obj 146 -256 hsl 128 15 0 1 0 0 empty empty empty -2 -8 0 10 -261234
-1 -1 0 1;
#X obj 143 -217 s blend;
#X text 194 -224 Probability of Clocks/Jitter in clock, f 28;
#X text 136 -127 Probability of doubling steps and variation for the
algorithms from zones, f 32;
#X text 50 -244 100% steady;
#X text 49 -183 100% reapetting, f 10;
#X text 289 -188 0% patch run as normal, f 18;
#X text 291 -256 0% no clock;
#X obj 39 133 hsl 128 15 0 1 0 0 empty empty empty -2 -8 0 10 -204800
-1 -1 0 1;
#X obj 37 165 s blend_alt;
#X obj 193 131 hsl 128 15 0 1 0 0 empty empty empty -2 -8 0 10 -204800
-1 -1 0 1;
#X obj 190 164 s window_alt;
#X text 215 130 reverb controls;
#X obj 36 226 s size_alt;
#X obj 39 202 hsl 128 15 0 1 0 0 empty empty empty -2 -8 0 10 -204800
-1 -1 0 1;
#N canvas 189 736 1920 446 keyboard 0;
#X floatatom 84 81 5 0 0 0 - - -;
#X obj 84 55 key;
#X obj 31 230 bng 15 250 50 0 empty empty empty 17 7 0 10 -262144 -1
-1;
#X obj 30 196 route 49;
#X obj 33 266 s slice1;
#X obj 106 236 bng 15 250 50 0 empty empty empty 17 7 0 10 -262144
-1 -1;
#X obj 168 230 bng 15 250 50 0 empty empty empty 17 7 0 10 -262144
-1 -1;
#X obj 235 230 bng 15 250 50 0 empty empty empty 17 7 0 10 -262144
-1 -1;
#X obj 107 269 s slice2;
#X obj 170 266 s slice3;
#X obj 237 266 s slice4;
#X obj 97 197 route 50;
#X obj 167 196 route 51;
#X obj 234 196 route 52;
#X obj 446 235 bng 15 250 50 0 empty empty empty 17 7 0 10 -262144
-1 -1;
#X obj 443 204 route 113;
#X obj 465 283 s file;
#X obj 513 237 bng 15 250 50 0 empty empty empty 17 7 0 10 -262144
-1 -1;
#X obj 512 202 route 119;
#X obj 535 277 s file_alt;
#X obj 357 24 pgmin;
#X floatatom 357 51 0 0 0 0 - - -;
#X obj 311 90 route 1;
#X obj 370 91 route 2;
#X obj 492 97 route 3;
#X obj 559 97 route 4;
#X obj 710 127 route 7;
#X obj 777 127 route 8;
#X obj 834 127 route 9;
#X obj 891 124 route 10;
#X obj 1006 126 route 11;
#X obj 1166 202 s sam5;
#X obj 1226 205 s sam6;
#X obj 950 225 s sam7;
#X obj 1001 224 s sam8;
#X obj 1046 223 s sam9;
#X obj 1096 223 s sam10;
#X obj 1045 176 s sam11;
#X obj 1076 124 route 12;
#X obj 1099 174 s sam12;
#X obj 610 206 route 5;
#X obj 664 208 route 6;
#X obj 1138 126 route 13;
#X obj 1204 123 route 14;
#X obj 1267 123 route 15;
#X obj 1286 177 s sam15;
#X obj 739 313 s slice5;
#X obj 799 313 s slice6;
#X obj 860 313 s slice7;
#X obj 920 312 s slice8;
#X obj 738 234 bng 15 250 50 0 empty empty empty 17 7 0 10 -262144
-1 -1;
#X obj 802 239 bng 15 250 50 0 empty empty empty 17 7 0 10 -262144
-1 -1;
#X obj 853 238 bng 15 250 50 0 empty empty empty 17 7 0 10 -262144
-1 -1;
#X obj 907 237 bng 15 250 50 0 empty empty empty 17 7 0 10 -262144
-1 -1;
#X obj 1360 120 route 16;
#X obj 1421 119 route 17;
#X obj 1481 118 route 18;
#X obj 1541 118 route 19;
#X obj 1604 118 route 20;
#X obj 1452 255 s sam16;
#X obj 1510 255 s sam17;
#X obj 1570 254 s sam18;
#X obj 1627 255 s sam19;
#X obj 1690 256 s sam20;
#X obj 1321 244 bng 15 250 50 0 empty empty empty 17 7 0 10 -262144
-1 -1;
#X obj 1321 290 s slice1b;
#X obj 393 255 tgl 15 0 empty empty empty 17 7 0 10 -262144 -1 -1 1
1;
#X obj 393 283 s source;
#X obj 1678 117 route 31;
#X obj 1678 162 s reseter;
#X obj 1760 108 route 32;
#X obj 1759 155 s taps;
#X obj 1825 97 route 33;
#X obj 1824 144 s keytaps;
#X text 717 40 Program change msgs are triggering slices and changing
samples on individual loopers at the same time;
#X text 1004 337 Each looper is triggered separately by MIDI controler
but both are sequenced at the same time with the same slice numbers
- idea is to link different material with the same sequence - trigger
separately to find good matches and make it feel more like an instrument
once playing;
#X text 1162 23 test your midi controller this patch is initiating
your first one on the list for Nebulae. You might want to change it
once working/testing on the laptop;
#X connect 0 0 3 0;
#X connect 0 0 11 0;
#X connect 0 0 12 0;
#X connect 0 0 13 0;
#X connect 0 0 15 0;
#X connect 0 0 18 0;
#X connect 1 0 0 0;
#X connect 2 0 4 0;
#X connect 3 0 2 0;
#X connect 5 0 8 0;
#X connect 6 0 9 0;
#X connect 7 0 10 0;
#X connect 11 0 5 0;
#X connect 12 0 6 0;
#X connect 13 0 7 0;
#X connect 14 0 16 0;
#X connect 14 0 66 0;
#X connect 15 0 14 0;
#X connect 17 0 19 0;
#X connect 18 0 17 0;
#X connect 20 0 21 0;
#X connect 21 0 22 0;
#X connect 21 0 23 0;
#X connect 21 0 24 0;
#X connect 21 0 25 0;
#X connect 21 0 26 0;
#X connect 21 0 27 0;
#X connect 21 0 28 0;
#X connect 21 0 29 0;
#X connect 21 0 30 0;
#X connect 21 0 38 0;
#X connect 21 0 40 0;
#X connect 21 0 41 0;
#X connect 21 0 42 0;
#X connect 21 0 43 0;
#X connect 21 0 44 0;
#X connect 21 0 54 0;
#X connect 21 0 55 0;
#X connect 21 0 56 0;
#X connect 21 0 57 0;
#X connect 21 0 58 0;
#X connect 21 0 68 0;
#X connect 21 0 70 0;
#X connect 21 0 72 0;
#X connect 22 0 2 0;
#X connect 23 0 5 0;
#X connect 24 0 6 0;
#X connect 25 0 7 0;
#X connect 26 0 33 0;
#X connect 26 0 50 0;
#X connect 27 0 34 0;
#X connect 27 0 51 0;
#X connect 28 0 35 0;
#X connect 28 0 52 0;
#X connect 29 0 36 0;
#X connect 29 0 53 0;
#X connect 30 0 37 0;
#X connect 30 0 2 0;
#X connect 38 0 39 0;
#X connect 38 0 2 0;
#X connect 40 0 14 0;
#X connect 41 0 17 0;
#X connect 42 0 31 0;
#X connect 42 0 2 0;
#X connect 43 0 32 0;
#X connect 43 0 2 0;
#X connect 44 0 45 0;
#X connect 44 0 2 0;
#X connect 50 0 46 0;
#X connect 51 0 47 0;
#X connect 52 0 48 0;
#X connect 53 0 49 0;
#X connect 54 0 59 0;
#X connect 54 0 64 0;
#X connect 55 0 60 0;
#X connect 55 0 64 0;
#X connect 56 0 61 0;
#X connect 56 0 64 0;
#X connect 57 0 62 0;
#X connect 57 0 64 0;
#X connect 58 0 63 0;
#X connect 58 0 64 0;
#X connect 64 0 65 0;
#X connect 66 0 67 0;
#X connect 68 0 69 0;
#X connect 70 0 71 0;
#X connect 72 0 73 0;
#X restore 947 -7 pd keyboard;
#N canvas 301 708 916 523 trigger 0;
#X obj 116 43 r record;
#X obj 268 17 r freeze;
#X obj 116 70 change;
#X obj 116 98 sel 1;
#X obj 116 129 bng 30 250 50 0 empty empty empty 17 7 0 10 -262130
-1 -1;
#X obj 268 71 change;
#X obj 268 103 sel 1;
#X obj 266 130 bng 30 250 50 0 empty empty empty 17 7 0 10 -262130
-1 -1;
#X obj 81 279 s slice3;
#X obj 157 280 s slice4;
#X obj 116 198 + 1;
#X obj 116 169 random 2;
#X obj 116 225 route 1;
#X obj 125 252 bng 15 250 50 0 empty empty empty 17 7 0 10 -262144
-1 -1;
#X obj 176 256 bng 15 250 50 0 empty empty empty 17 7 0 10 -262144
-1 -1;
#X obj 266 200 + 1;
#X obj 266 171 random 2;
#X obj 266 227 route 1;
#X obj 275 254 bng 15 250 50 0 empty empty empty 17 7 0 10 -262144
-1 -1;
#X obj 326 258 bng 15 250 50 0 empty empty empty 17 7 0 10 -262144
-1 -1;
#X obj 231 281 s slice1;
#X obj 307 282 s slice2;
#X obj 412 112 list prepend 0;
#X obj 493 68 tgl 30 0 empty empty empty 17 7 0 10 -262144 -1 -1 0
1;
#X obj 412 141 route 0 1;
#X floatatom 411 173 5 0 0 0 - - -;
#X floatatom 450 173 5 0 0 0 - - -;
#X obj 494 24 r initbang;
#X msg 492 46 0;
#X obj 576 49 change;
#X obj 576 23 r record_alt;
#X text 512 125 .... this is on/off switch that locks freeze activates
tap tempo by pressing record alt;
#X connect 0 0 2 0;
#X connect 1 0 22 0;
#X connect 2 0 3 0;
#X connect 3 0 4 0;
#X connect 4 0 11 0;
#X connect 5 0 6 0;
#X connect 6 0 7 0;
#X connect 7 0 16 0;
#X connect 10 0 12 0;
#X connect 11 0 10 0;
#X connect 12 0 8 0;
#X connect 12 0 13 0;
#X connect 12 1 9 0;
#X connect 12 1 14 0;
#X connect 15 0 17 0;
#X connect 16 0 15 0;
#X connect 17 0 18 0;
#X connect 17 0 20 0;
#X connect 17 1 19 0;
#X connect 17 1 21 0;
#X connect 22 0 24 0;
#X connect 23 0 22 1;
#X connect 24 0 25 0;
#X connect 24 0 5 0;
#X connect 24 1 26 0;
#X connect 27 0 28 0;
#X connect 28 0 23 0;
#X connect 29 0 23 0;
#X connect 30 0 29 0;
#X restore 947 42 pd trigger;
#X obj 1041 -143 bng 15 250 50 0 empty empty empty 17 7 0 10 -262144
-1 -1;
#X msg 1041 -113 \; pd midi-dialog 1 0 0 0 0 0 0 0 0 0 0 0 0 0 0 0
0 0 5 7;
#X obj 816 -387 r initbang;
#X obj 122 -385 r initbang;
#X obj 1355 -4 r pd;
#X obj 1356 23 print;
#X msg 1159 -158 \; pd midi-dialog 1 2 0 0 0 0 0 0 0 1 2 0 0 0 0 0
0 0 5 7;
#X text 943 65 Trigger slice 1 and 2 with Record input slice 3 and
4 with Freeze. Slice selection is random;
#X text 1033 -253 Initialization -- Turn DSP on and MIDI controller
on;
#N canvas 1429 483 848 712 taptempo 1;
#X obj 206 526 timer;
#X floatatom 206 568 5 0 0 0 - - -;
#X obj 206 439 route 1;
#X obj 206 475 bng 30 250 50 0 empty empty empty 17 7 0 10 -261234
-1 -1;
#X obj 245 476 bng 30 250 50 0 empty empty empty 17 7 0 10 -261234
-1 -1;
#X obj 206 327 change;
#X obj 206 406 tgl 15 0 empty empty empty 17 7 0 10 -262144 -1 -1 0
1;
#X obj 206 375 bng 20 250 50 0 empty empty empty 17 7 0 10 -262130
-1 -1;
#X obj 206 604 s taptempo;
#X obj 206 352 sel 1;
#X obj 206 78 r freeze;
#X obj 308 302 r taps;
#X text 337 281 Taps from MIDI keyboard;
#X obj 206 212 list prepend 0;
#X obj 287 163 tgl 30 0 empty empty empty 17 7 0 10 -262144 -1 -1 0
1;
#X obj 206 241 route 0 1;
#X floatatom 206 277 5 0 0 0 - - -;
#X floatatom 244 273 5 0 0 0 - - -;
#X obj 287 79 r initbang;
#X msg 287 110 0;
#X obj 372 78 r keytaps;
#X obj 372 106 bang;
#X text 352 145 Needs midi connected to then can tap tempo from controller
see pd keyboard .... this is on/off switch that locks freeze taps below
via another button;
#X connect 0 0 1 0;
#X connect 1 0 8 0;
#X connect 2 0 3 0;
#X connect 2 1 4 0;
#X connect 3 0 0 0;
#X connect 4 0 0 1;
#X connect 5 0 9 0;
#X connect 6 0 2 0;
#X connect 7 0 6 0;
#X connect 9 0 7 0;
#X connect 10 0 13 0;
#X connect 11 0 5 0;
#X connect 13 0 15 0;
#X connect 14 0 13 1;
#X connect 15 0 16 0;
#X connect 15 1 17 0;
#X connect 16 0 5 0;
#X connect 18 0 19 0;
#X connect 19 0 14 0;
#X connect 20 0 21 0;
#X connect 21 0 14 0;
#X restore 946 110 pd taptempo;
#X msg 760 -398 0.8;
#N canvas 1197 545 450 496 input 1;
#X obj 134 125 adc~;
#X obj 134 263 send~ inputA;
#X text 74 317 this is input L that goes through the reverb see sampler
2 see pd processIN;
#X connect 0 0 1 0;
#X restore 40 92 pd input;
#X text 1149 -182 use this below instead if you like to use 2 midi
controllers;
#X text 945 14 MIDI keyboard mapping - program change messages;
#X text 113 228 volume for input L going thru reverb starts at 0;
#X text 991 246 Reconetc by Radek Rudnicki www.radek-rudnicki.net;
#X text 944 131 Press Source then Record for Record_alt then Freeze
acts as tap tempo / external clock;
#X text 1039 -80 this activates midi controller;
#X connect 0 0 1 0;
#X connect 2 0 114 0;
#X connect 3 0 4 0;
#X connect 4 0 32 0;
#X connect 4 1 6 0;
#X connect 4 2 7 0;
#X connect 4 3 8 0;
#X connect 4 4 9 0;
#X connect 4 5 10 0;
#X connect 4 6 11 0;
#X connect 4 7 12 0;
#X connect 4 8 13 0;
#X connect 4 9 14 0;
#X connect 4 10 15 0;
#X connect 4 11 16 0;
#X connect 4 12 17 0;
#X connect 4 13 5 0;
#X connect 5 0 18 0;
#X connect 5 1 19 0;
#X connect 5 2 20 0;
#X connect 5 3 21 0;
#X connect 5 4 22 0;
#X connect 5 5 23 0;
#X connect 5 6 24 0;
#X connect 5 7 26 0;
#X connect 5 8 27 0;
#X connect 5 9 28 0;
#X connect 5 10 25 0;
#X connect 36 0 49 0;
#X connect 37 0 48 0;
#X connect 38 0 68 0;
#X connect 39 0 82 0;
#X connect 40 0 45 0;
#X connect 41 0 40 0;
#X connect 41 0 51 1;
#X connect 42 0 51 0;
#X connect 42 0 53 0;
#X connect 42 0 51 1;
#X connect 43 0 44 0;
#X connect 44 0 93 0;
#X connect 48 0 57 0;
#X connect 48 1 56 0;
#X connect 49 0 42 0;
#X connect 49 1 41 0;
#X connect 50 0 51 0;
#X connect 50 0 52 0;
#X connect 51 0 50 1;
#X connect 52 0 54 0;
#X connect 53 0 50 0;
#X connect 54 0 40 0;
#X connect 55 0 46 0;
#X connect 56 0 55 0;
#X connect 56 0 59 1;
#X connect 57 0 59 0;
#X connect 57 0 61 0;
#X connect 57 0 59 1;
#X connect 58 0 59 0;
#X connect 58 0 60 0;
#X connect 59 0 58 1;
#X connect 60 0 62 0;
#X connect 61 0 58 0;
#X connect 62 0 55 0;
#X connect 63 0 64 0;
#X connect 64 0 65 0;
#X connect 64 0 138 0;
#X connect 66 0 67 0;
#X connect 68 0 71 0;
#X connect 68 1 70 0;
#X connect 69 0 77 0;
#X connect 70 0 69 0;
#X connect 70 0 73 1;
#X connect 71 0 73 0;
#X connect 71 0 75 0;
#X connect 71 0 73 1;
#X connect 72 0 73 0;
#X connect 72 0 74 0;
#X connect 73 0 72 1;
#X connect 74 0 76 0;
#X connect 75 0 72 0;
#X connect 76 0 69 0;
#X connect 78 0 43 0;
#X connect 79 0 47 0;
#X connect 80 0 79 0;
#X connect 80 0 84 1;
#X connect 81 0 84 0;
#X connect 81 0 86 0;
#X connect 81 0 84 1;
#X connect 82 0 81 0;
#X connect 82 1 80 0;
#X connect 83 0 84 0;
#X connect 83 0 85 0;
#X connect 84 0 83 1;
#X connect 85 0 87 0;
#X connect 86 0 83 0;
#X connect 87 0 79 0;
#X connect 91 0 92 0;
#X connect 93 0 36 0;
#X connect 93 1 37 0;
#X connect 93 2 38 0;
#X connect 93 3 39 0;
#X connect 93 4 95 0;
#X connect 95 0 115 0;
#X connect 98 0 99 0;
#X connect 104 0 105 0;
#X connect 106 0 107 0;
#X connect 108 0 113 0;
#X connect 109 0 110 0;
#X connect 119 0 120 0;
#X connect 121 0 122 0;
#X connect 129 0 130 0;
#X connect 131 0 132 0;
#X connect 135 0 134 0;
#X connect 138 0 139 0;
#X connect 140 0 106 0;
#X connect 140 0 148 0;
#X connect 141 0 104 0;
#X connect 148 0 98 0;
#X connect 148 0 0 0;
#X coords 0 1040 1 1039 85 60 0;
